<?xml version="1.0" encoding="UTF-8"?>
<svg width="840" height="845">
<rect x="0" y="0" width="840" height="845" style="fill:#777777;" />
<g>
<text x="25" y="22">Chromosome 1</text>
<rect x="25" y="25" width="29" height="20" style="fill:black;" />
<rect x="54" y="25" width="35" height="20" style="fill:red;" />
<rect x="89" y="25" width="4" height="20" style="fill:black;" />
<rect x="93" y="25" width="6" height="20" style="fill:red;" />
<rect x="99" y="25" width="21" height="20" style="fill:black;" />
</g>
<g>
<text x="25" y="67">Chromosome 2</text>
<rect x="25" y="70" width="107" height="20" style="fill:black;" />
<rect x="132" y="70" width="10" height="20" style="fill:red;" />
<rect x="142" y="70" width="23" height="20" style="fill:black;" />
<rect x="165" y="70" width="28" height="20" style="fill:fuchsia;" />
<rect x="193" y="70" width="11" height="20" style="fill:black;" />
<rect x="204" y="70" width="28" height="20" style="fill:fuchsia;" />
<rect x="232" y="70" width="5" height="20" style="fill:black;" />
<rect x="237" y="70" width="4" height="20" style="fill:fuchsia;" />
<rect x="241" y="70" width="10" height="20" style="fill:black;" />
<rect x="251" y="70" width="8" height="20" style="fill:fuchsia;" />
<rect x="259" y="70" width="11" height="20" style="fill:black;" />
<rect x="270" y="70" width="166" height="20" style="fill:fuchsia;" />
</g>
<g>
<text x="25" y="112">Chromosome 3</text>
<rect x="25" y="115" width="99" height="20" style="fill:black;" />
<rect x="124" y="115" width="26" height="20" style="fill:fuchsia;" />
<rect x="150" y="115" width="31" height="20" style="fill:black;" />
</g>
<g>
<text x="25" y="157">Chromosome 4</text>
<rect x="25" y="160" width="4" height="20" style="fill:orange;" />
<rect x="29" y="160" width="64" height="20" style="fill:black;" />
<rect x="93" y="160" width="2" height="20" style="fill:orange;" />
<rect x="95" y="160" width="2" height="20" style="fill:black;" />
<rect x="97" y="160" width="3" height="20" style="fill:orange;" />
<rect x="100" y="160" width="12" height="20" style="fill:black;" />
<rect x="112" y="160" width="121" height="20" style="fill:orange;" />
<rect x="233" y="160" width="20" height="20" style="fill:black;" />
<rect x="253" y="160" width="28" height="20" style="fill:red;" />
<rect x="281" y="160" width="20" height="20" style="fill:black;" />
<rect x="301" y="160" width="11" height="20" style="fill:orange;" />
<rect x="312" y="160" width="28" height="20" style="fill:black;" />
<rect x="340" y="160" width="35" height="20" style="fill:orange;" />
<rect x="375" y="160" width="28" height="20" style="fill:black;" />
<rect x="403" y="160" width="3" height="20" style="fill:orange;" />
<rect x="406" y="160" width="14" height="20" style="fill:black;" />
<rect x="420" y="160" width="378" height="20" style="fill:orange;" />
<rect x="798" y="160" width="6" height="20" style="fill:black;" />
<rect x="804" y="160" width="7" height="20" style="fill:orange;" />
<rect x="811" y="160" width="4" height="20" style="fill:black;" />
</g>
<g>
<text x="25" y="202">Chromosome 5</text>
<rect x="25" y="205" width="10" height="20" style="fill:black;" />
<rect x="35" y="205" width="4" height="20" style="fill:orange;" />
<rect x="39" y="205" width="21" height="20" style="fill:black;" />
<rect x="60" y="205" width="7" height="20" style="fill:orange;" />
<rect x="67" y="205" width="27" height="20" style="fill:black;" />
<rect x="94" y="205" width="3" height="20" style="fill:red;" />
<rect x="97" y="205" width="22" height="20" style="fill:black;" />
<rect x="119" y="205" width="54" height="20" style="fill:orange;" />
<rect x="173" y="205" width="6" height="20" style="fill:black;" />
<rect x="179" y="205" width="47" height="20" style="fill:orange;" />
<rect x="226" y="205" width="15" height="20" style="fill:black;" />
<rect x="241" y="205" width="9" height="20" style="fill:orange;" />
<rect x="250" y="205" width="38" height="20" style="fill:black;" />
</g>
<g>
<text x="25" y="247">Chromosome 6</text>
<rect x="25" y="250" width="21" height="20" style="fill:black;" />
<rect x="46" y="250" width="6" height="20" style="fill:red;" />
<rect x="52" y="250" width="3" height="20" style="fill:black;" />
<rect x="55" y="250" width="56" height="20" style="fill:red;" />
<rect x="111" y="250" width="8" height="20" style="fill:black;" />
<rect x="119" y="250" width="23" height="20" style="fill:red;" />
<rect x="142" y="250" width="4" height="20" style="fill:black;" />
</g>
<g>
<text x="25" y="292">Chromosome 7</text>
<rect x="25" y="295" width="5" height="20" style="fill:black;" />
<rect x="30" y="295" width="7" height="20" style="fill:orange;" />
<rect x="37" y="295" width="40" height="20" style="fill:black;" />
<rect x="77" y="295" width="4" height="20" style="fill:orange;" />
<rect x="81" y="295" width="35" height="20" style="fill:black;" />
<rect x="116" y="295" width="14" height="20" style="fill:orange;" />
<rect x="130" y="295" width="20" height="20" style="fill:black;" />
<rect x="150" y="295" width="21" height="20" style="fill:orange;" />
<rect x="171" y="295" width="15" height="20" style="fill:black;" />
<rect x="186" y="295" width="10" height="20" style="fill:orange;" />
<rect x="196" y="295" width="11" height="20" style="fill:black;" />
<rect x="207" y="295" width="28" height="20" style="fill:orange;" />
<rect x="235" y="295" width="15" height="20" style="fill:black;" />
<rect x="250" y="295" width="14" height="20" style="fill:orange;" />
<rect x="264" y="295" width="103" height="20" style="fill:black;" />
<rect x="367" y="295" width="14" height="20" style="fill:orange;" />
<rect x="381" y="295" width="49" height="20" style="fill:black;" />
<rect x="430" y="295" width="17" height="20" style="fill:fuchsia;" />
<rect x="447" y="295" width="1" height="20" style="fill:black;" />
<rect x="448" y="295" width="30" height="20" style="fill:fuchsia;" />
<rect x="478" y="295" width="19" height="20" style="fill:black;" />
<rect x="497" y="295" width="12" height="20" style="fill:fuchsia;" />
<rect x="509" y="295" width="10" height="20" style="fill:black;" />
<rect x="519" y="295" width="4" height="20" style="fill:fuchsia;" />
<rect x="523" y="295" width="39" height="20" style="fill:black;" />
<rect x="562" y="295" width="10" height="20" style="fill:fuchsia;" />
<rect x="572" y="295" width="10" height="20" style="fill:black;" />
</g>
<g>
<text x="25" y="337">Chromosome 8</text>
<rect x="25" y="340" width="50" height="20" style="fill:black;" />
<rect x="75" y="340" width="11" height="20" style="fill:red;" />
<rect x="86" y="340" width="20" height="20" style="fill:black;" />
<rect x="106" y="340" width="172" height="20" style="fill:fuchsia;" />
<rect x="278" y="340" width="15" height="20" style="fill:black;" />
</g>
<g>
<text x="25" y="382">Chromosome 9</text>
<rect x="25" y="385" width="4" height="20" style="fill:black;" />
<rect x="29" y="385" width="4" height="20" style="fill:orange;" />
<rect x="33" y="385" width="10" height="20" style="fill:black;" />
<rect x="43" y="385" width="60" height="20" style="fill:orange;" />
<rect x="103" y="385" width="5" height="20" style="fill:black;" />
<rect x="108" y="385" width="26" height="20" style="fill:orange;" />
<rect x="134" y="385" width="48" height="20" style="fill:black;" />
<rect x="182" y="385" width="21" height="20" style="fill:red;" />
<rect x="203" y="385" width="8" height="20" style="fill:black;" />
<rect x="211" y="385" width="7" height="20" style="fill:red;" />
<rect x="218" y="385" width="14" height="20" style="fill:black;" />
<rect x="232" y="385" width="1" height="20" style="fill:red;" />
<rect x="233" y="385" width="3" height="20" style="fill:black;" />
</g>
<g>
<text x="25" y="427">Chromosome 10</text>
<rect x="25" y="430" width="11" height="20" style="fill:black;" />
<rect x="36" y="430" width="2" height="20" style="fill:orange;" />
<rect x="38" y="430" width="48" height="20" style="fill:black;" />
<rect x="86" y="430" width="7" height="20" style="fill:orange;" />
<rect x="93" y="430" width="7" height="20" style="fill:black;" />
<rect x="100" y="430" width="107" height="20" style="fill:orange;" />
<rect x="207" y="430" width="10" height="20" style="fill:black;" />
<rect x="217" y="430" width="35" height="20" style="fill:red;" />
<rect x="252" y="430" width="17" height="20" style="fill:black;" />
<rect x="269" y="430" width="78" height="20" style="fill:orange;" />
<rect x="347" y="430" width="8" height="20" style="fill:black;" />
<rect x="355" y="430" width="9" height="20" style="fill:orange;" />
<rect x="364" y="430" width="11" height="20" style="fill:black;" />
<rect x="375" y="430" width="6" height="20" style="fill:orange;" />
<rect x="381" y="430" width="6" height="20" style="fill:black;" />
<rect x="387" y="430" width="2" height="20" style="fill:orange;" />
<rect x="389" y="430" width="7" height="20" style="fill:black;" />
<rect x="396" y="430" width="3" height="20" style="fill:orange;" />
<rect x="399" y="430" width="1" height="20" style="fill:black;" />
</g>
<g>
<text x="25" y="472">Chromosome 11</text>
<rect x="25" y="475" width="1" height="20" style="fill:orange;" />
<rect x="26" y="475" width="1" height="20" style="fill:black;" />
<rect x="27" y="475" width="147" height="20" style="fill:orange;" />
<rect x="174" y="475" width="22" height="20" style="fill:black;" />
<rect x="196" y="475" width="4" height="20" style="fill:orange;" />
<rect x="200" y="475" width="30" height="20" style="fill:black;" />
<rect x="230" y="475" width="48" height="20" style="fill:red;" />
<rect x="278" y="475" width="14" height="20" style="fill:black;" />
<rect x="292" y="475" width="61" height="20" style="fill:orange;" />
</g>
<g>
<text x="25" y="517">Chromosome 12</text>
<rect x="25" y="520" width="4" height="20" style="fill:black;" />
<rect x="29" y="520" width="8" height="20" style="fill:orange;" />
<rect x="37" y="520" width="12" height="20" style="fill:black;" />
<rect x="49" y="520" width="11" height="20" style="fill:red;" />
<rect x="60" y="520" width="3" height="20" style="fill:black;" />
<rect x="63" y="520" width="4" height="20" style="fill:orange;" />
<rect x="67" y="520" width="14" height="20" style="fill:black;" />
<rect x="81" y="520" width="33" height="20" style="fill:orange;" />
<rect x="114" y="520" width="5" height="20" style="fill:fuchsia;" />
<rect x="119" y="520" width="25" height="20" style="fill:black;" />
<rect x="144" y="520" width="2" height="20" style="fill:fuchsia;" />
<rect x="146" y="520" width="7" height="20" style="fill:black;" />
<rect x="153" y="520" width="25" height="20" style="fill:orange;" />
<rect x="178" y="520" width="7" height="20" style="fill:black;" />
<rect x="185" y="520" width="1" height="20" style="fill:fuchsia;" />
<rect x="186" y="520" width="5" height="20" style="fill:black;" />
<rect x="191" y="520" width="6" height="20" style="fill:fuchsia;" />
<rect x="197" y="520" width="4" height="20" style="fill:black;" />
<rect x="201" y="520" width="3" height="20" style="fill:fuchsia;" />
<rect x="204" y="520" width="13" height="20" style="fill:black;" />
<rect x="217" y="520" width="10" height="20" style="fill:orange;" />
<rect x="227" y="520" width="42" height="20" style="fill:black;" />
<rect x="269" y="520" width="15" height="20" style="fill:orange;" />
<rect x="284" y="520" width="5" height="20" style="fill:black;" />
<rect x="289" y="520" width="22" height="20" style="fill:fuchsia;" />
<rect x="311" y="520" width="4" height="20" style="fill:black;" />
<rect x="315" y="520" width="2" height="20" style="fill:orange;" />
<rect x="317" y="520" width="14" height="20" style="fill:black;" />
<rect x="331" y="520" width="4" height="20" style="fill:orange;" />
<rect x="335" y="520" width="13" height="20" style="fill:black;" />
<rect x="348" y="520" width="19" height="20" style="fill:fuchsia;" />
<rect x="367" y="520" width="8" height="20" style="fill:black;" />
<rect x="375" y="520" width="1" height="20" style="fill:fuchsia;" />
<rect x="376" y="520" width="13" height="20" style="fill:black;" />
<rect x="389" y="520" width="33" height="20" style="fill:orange;" />
<rect x="422" y="520" width="134" height="20" style="fill:black;" />
</g>
<g>
<text x="25" y="562">Chromosome 13</text>
<rect x="25" y="565" width="3" height="20" style="fill:black;" />
<rect x="28" y="565" width="31" height="20" style="fill:fuchsia;" />
<rect x="59" y="565" width="13" height="20" style="fill:black;" />
<rect x="72" y="565" width="47" height="20" style="fill:fuchsia;" />
<rect x="119" y="565" width="16" height="20" style="fill:orange;" />
<rect x="135" y="565" width="5" height="20" style="fill:black;" />
<rect x="140" y="565" width="29" height="20" style="fill:red;" />
<rect x="169" y="565" width="1" height="20" style="fill:black;" />
<rect x="170" y="565" width="60" height="20" style="fill:orange;" />
<rect x="230" y="565" width="37" height="20" style="fill:black;" />
<rect x="267" y="565" width="160" height="20" style="fill:fuchsia;" />
<rect x="427" y="565" width="7" height="20" style="fill:black;" />
<rect x="434" y="565" width="1" height="20" style="fill:fuchsia;" />
<rect x="435" y="565" width="37" height="20" style="fill:black;" />
<rect x="472" y="565" width="1" height="20" style="fill:fuchsia;" />
</g>
<g>
<text x="25" y="607">Chromosome 14</text>
<rect x="25" y="610" width="3" height="20" style="fill:black;" />
<rect x="28" y="610" width="128" height="20" style="fill:orange;" />
<rect x="156" y="610" width="17" height="20" style="fill:black;" />
<rect x="173" y="610" width="86" height="20" style="fill:orange;" />
<rect x="259" y="610" width="3" height="20" style="fill:black;" />
<rect x="262" y="610" width="4" height="20" style="fill:orange;" />
<rect x="266" y="610" width="8" height="20" style="fill:black;" />
<rect x="274" y="610" width="54" height="20" style="fill:orange;" />
<rect x="328" y="610" width="24" height="20" style="fill:black;" />
<rect x="352" y="610" width="26" height="20" style="fill:red;" />
<rect x="378" y="610" width="48" height="20" style="fill:black;" />
<rect x="426" y="610" width="3" height="20" style="fill:orange;" />
<rect x="429" y="610" width="11" height="20" style="fill:black;" />
</g>
<g>
<text x="25" y="652">Chromosome 15</text>
<rect x="25" y="655" width="3" height="20" style="fill:orange;" />
<rect x="28" y="655" width="25" height="20" style="fill:black;" />
<rect x="53" y="655" width="21" height="20" style="fill:orange;" />
<rect x="74" y="655" width="1" height="20" style="fill:black;" />
<rect x="75" y="655" width="25" height="20" style="fill:orange;" />
<rect x="100" y="655" width="3" height="20" style="fill:black;" />
<rect x="103" y="655" width="4" height="20" style="fill:orange;" />
<rect x="107" y="655" width="2" height="20" style="fill:black;" />
<rect x="109" y="655" width="51" height="20" style="fill:orange;" />
<rect x="160" y="655" width="5" height="20" style="fill:black;" />
<rect x="165" y="655" width="36" height="20" style="fill:red;" />
<rect x="201" y="655" width="10" height="20" style="fill:black;" />
<rect x="211" y="655" width="315" height="20" style="fill:orange;" />
<rect x="526" y="655" width="3" height="20" style="fill:black;" />
<rect x="529" y="655" width="1" height="20" style="fill:orange;" />
<rect x="530" y="655" width="51" height="20" style="fill:black;" />
</g>
<g>
<text x="25" y="697">Chromosome 16</text>
<rect x="25" y="700" width="7" height="20" style="fill:black;" />
<rect x="32" y="700" width="162" height="20" style="fill:fuchsia;" />
<rect x="194" y="700" width="1" height="20" style="fill:black;" />
<rect x="195" y="700" width="33" height="20" style="fill:fuchsia;" />
<rect x="228" y="700" width="15" height="20" style="fill:black;" />
<rect x="243" y="700" width="27" height="20" style="fill:fuchsia;" />
<rect x="270" y="700" width="4" height="20" style="fill:black;" />
<rect x="274" y="700" width="2" height="20" style="fill:orange;" />
<rect x="276" y="700" width="15" height="20" style="fill:black;" />
<rect x="291" y="700" width="25" height="20" style="fill:red;" />
<rect x="316" y="700" width="8" height="20" style="fill:black;" />
<rect x="324" y="700" width="40" height="20" style="fill:orange;" />
<rect x="364" y="700" width="95" height="20" style="fill:black;" />
<rect x="459" y="700" width="5" height="20" style="fill:orange;" />
<rect x="464" y="700" width="45" height="20" style="fill:black;" />
</g>
<g>
<text x="25" y="745" style="fill:red;">Antarctica</text>
<text x="25" y="770" style="fill:fuchsia;">Godwana</text>
<text x="25" y="795" style="fill:orange;">Laurasia</text>
<text x="25" y="820" style="fill:black;">Tethys</text>
</g>
</svg>
