<?xml version="1.0" encoding="UTF-8" standalone="no"?>
<!-- Created with Inkscape (http://www.inkscape.org/) -->

<svg
   xmlns:dc="http://purl.org/dc/elements/1.1/"
   xmlns:cc="http://creativecommons.org/ns#"
   xmlns:rdf="http://www.w3.org/1999/02/22-rdf-syntax-ns#"
   xmlns:svg="http://www.w3.org/2000/svg"
   xmlns="http://www.w3.org/2000/svg"
   xmlns:sodipodi="http://sodipodi.sourceforge.net/DTD/sodipodi-0.dtd"
   xmlns:inkscape="http://www.inkscape.org/namespaces/inkscape"
   width="243.84mm"
   height="155.36333mm"
   viewBox="0 0 243.84 155.36333"
   version="1.1"
   id="svg8"
   inkscape:version="0.92.4 (5da689c313, 2019-01-14)"
   sodipodi:docname="CommunityEntropyDistributions.svg">
  <defs
     id="defs2">
    <clipPath
       id="clipPath841"
       clipPathUnits="userSpaceOnUse">
      <path
         style="clip-rule:evenodd"
         inkscape:connector-curvature="0"
         id="path839"
         d="M 109.86,138.44 H 721.29 V 467.48 H 109.86 Z" />
    </clipPath>
    <clipPath
       id="clipPath851"
       clipPathUnits="userSpaceOnUse">
      <path
         style="clip-rule:evenodd"
         inkscape:connector-curvature="0"
         id="path849"
         d="M 109.86,138.44 H 721.29 V 467.48 H 109.86 Z" />
    </clipPath>
    <clipPath
       id="clipPath861"
       clipPathUnits="userSpaceOnUse">
      <path
         style="clip-rule:evenodd"
         inkscape:connector-curvature="0"
         id="path859"
         d="M 50.88,86.28 H 741.12 V 525.6 H 50.88 Z" />
    </clipPath>
    <clipPath
       id="clipPath873"
       clipPathUnits="userSpaceOnUse">
      <path
         style="clip-rule:evenodd"
         inkscape:connector-curvature="0"
         id="path871"
         d="M 50.88,86.28 H 741.12 V 525.6 H 50.88 Z" />
    </clipPath>
    <clipPath
       id="clipPath885"
       clipPathUnits="userSpaceOnUse">
      <path
         style="clip-rule:evenodd"
         inkscape:connector-curvature="0"
         id="path883"
         d="M 50.88,86.28 H 741.12 V 525.6 H 50.88 Z" />
    </clipPath>
    <clipPath
       id="clipPath897"
       clipPathUnits="userSpaceOnUse">
      <path
         style="clip-rule:evenodd"
         inkscape:connector-curvature="0"
         id="path895"
         d="M 50.88,86.28 H 741.12 V 525.6 H 50.88 Z" />
    </clipPath>
    <clipPath
       id="clipPath909"
       clipPathUnits="userSpaceOnUse">
      <path
         style="clip-rule:evenodd"
         inkscape:connector-curvature="0"
         id="path907"
         d="M 50.88,86.28 H 741.12 V 525.6 H 50.88 Z" />
    </clipPath>
    <clipPath
       id="clipPath921"
       clipPathUnits="userSpaceOnUse">
      <path
         style="clip-rule:evenodd"
         inkscape:connector-curvature="0"
         id="path919"
         d="M 50.88,86.28 H 741.12 V 525.6 H 50.88 Z" />
    </clipPath>
    <clipPath
       id="clipPath933"
       clipPathUnits="userSpaceOnUse">
      <path
         style="clip-rule:evenodd"
         inkscape:connector-curvature="0"
         id="path931"
         d="M 50.88,86.28 H 741.12 V 525.6 H 50.88 Z" />
    </clipPath>
    <clipPath
       id="clipPath945"
       clipPathUnits="userSpaceOnUse">
      <path
         style="clip-rule:evenodd"
         inkscape:connector-curvature="0"
         id="path943"
         d="M 50.88,86.28 H 741.12 V 525.6 H 50.88 Z" />
    </clipPath>
    <clipPath
       id="clipPath957"
       clipPathUnits="userSpaceOnUse">
      <path
         style="clip-rule:evenodd"
         inkscape:connector-curvature="0"
         id="path955"
         d="M 50.88,86.28 H 741.12 V 525.6 H 50.88 Z" />
    </clipPath>
    <clipPath
       id="clipPath969"
       clipPathUnits="userSpaceOnUse">
      <path
         style="clip-rule:evenodd"
         inkscape:connector-curvature="0"
         id="path967"
         d="M 50.88,86.28 H 741.12 V 525.6 H 50.88 Z" />
    </clipPath>
    <clipPath
       id="clipPath981"
       clipPathUnits="userSpaceOnUse">
      <path
         style="clip-rule:evenodd"
         inkscape:connector-curvature="0"
         id="path979"
         d="M 50.88,86.28 H 741.12 V 525.6 H 50.88 Z" />
    </clipPath>
    <clipPath
       id="clipPath993"
       clipPathUnits="userSpaceOnUse">
      <path
         style="clip-rule:evenodd"
         inkscape:connector-curvature="0"
         id="path991"
         d="M 50.88,86.28 H 741.12 V 525.6 H 50.88 Z" />
    </clipPath>
    <clipPath
       id="clipPath1005"
       clipPathUnits="userSpaceOnUse">
      <path
         style="clip-rule:evenodd"
         inkscape:connector-curvature="0"
         id="path1003"
         d="M 50.88,86.28 H 741.12 V 525.6 H 50.88 Z" />
    </clipPath>
    <clipPath
       id="clipPath1017"
       clipPathUnits="userSpaceOnUse">
      <path
         style="clip-rule:evenodd"
         inkscape:connector-curvature="0"
         id="path1015"
         d="M 50.88,86.28 H 741.12 V 525.6 H 50.88 Z" />
    </clipPath>
    <clipPath
       id="clipPath1029"
       clipPathUnits="userSpaceOnUse">
      <path
         style="clip-rule:evenodd"
         inkscape:connector-curvature="0"
         id="path1027"
         d="M 50.88,86.28 H 741.12 V 525.6 H 50.88 Z" />
    </clipPath>
    <clipPath
       id="clipPath1041"
       clipPathUnits="userSpaceOnUse">
      <path
         style="clip-rule:evenodd"
         inkscape:connector-curvature="0"
         id="path1039"
         d="M 50.88,86.28 H 741.12 V 525.6 H 50.88 Z" />
    </clipPath>
    <clipPath
       id="clipPath1053"
       clipPathUnits="userSpaceOnUse">
      <path
         style="clip-rule:evenodd"
         inkscape:connector-curvature="0"
         id="path1051"
         d="M 50.88,86.28 H 741.12 V 525.6 H 50.88 Z" />
    </clipPath>
    <clipPath
       id="clipPath1065"
       clipPathUnits="userSpaceOnUse">
      <path
         style="clip-rule:evenodd"
         inkscape:connector-curvature="0"
         id="path1063"
         d="M 50.88,86.28 H 741.12 V 525.6 H 50.88 Z" />
    </clipPath>
    <clipPath
       id="clipPath1077"
       clipPathUnits="userSpaceOnUse">
      <path
         style="clip-rule:evenodd"
         inkscape:connector-curvature="0"
         id="path1075"
         d="M 50.88,86.28 H 741.12 V 525.6 H 50.88 Z" />
    </clipPath>
    <clipPath
       id="clipPath1091"
       clipPathUnits="userSpaceOnUse">
      <path
         style="clip-rule:evenodd"
         inkscape:connector-curvature="0"
         id="path1089"
         d="M 50.88,86.28 H 741.12 V 525.6 H 50.88 Z" />
    </clipPath>
    <clipPath
       id="clipPath1105"
       clipPathUnits="userSpaceOnUse">
      <path
         style="clip-rule:evenodd"
         inkscape:connector-curvature="0"
         id="path1103"
         d="M 50.88,86.28 H 741.12 V 525.6 H 50.88 Z" />
    </clipPath>
    <clipPath
       id="clipPath1117"
       clipPathUnits="userSpaceOnUse">
      <path
         style="clip-rule:evenodd"
         inkscape:connector-curvature="0"
         id="path1115"
         d="M 50.4,85.8 H 741.6 V 526.2 H 50.4 Z" />
    </clipPath>
  </defs>
  <sodipodi:namedview
     id="base"
     pagecolor="#ffffff"
     bordercolor="#666666"
     borderopacity="1.0"
     inkscape:pageopacity="0.0"
     inkscape:pageshadow="2"
     inkscape:zoom="0.98994949"
     inkscape:cx="389.80334"
     inkscape:cy="284.01786"
     inkscape:document-units="mm"
     inkscape:current-layer="layer1"
     showgrid="false"
     fit-margin-top="0"
     fit-margin-left="0"
     fit-margin-right="0"
     fit-margin-bottom="0"
     inkscape:window-width="1920"
     inkscape:window-height="794"
     inkscape:window-x="-8"
     inkscape:window-y="215"
     inkscape:window-maximized="1" />
  <metadata
     id="metadata5">
    <rdf:RDF>
      <cc:Work
         rdf:about="">
        <dc:format>image/svg+xml</dc:format>
        <dc:type
           rdf:resource="http://purl.org/dc/dcmitype/StillImage" />
        <dc:title></dc:title>
      </cc:Work>
    </rdf:RDF>
  </metadata>
  <g
     inkscape:label="Layer 1"
     inkscape:groupmode="layer"
     id="layer1"
     transform="translate(14.574762,-68.883817)">
    <g
       transform="matrix(0.35277777,0,0,-0.35277777,-32.354762,254.51548)"
       inkscape:label="shannon"
       id="g823">
      <path
         inkscape:connector-curvature="0"
         id="path825"
         style="fill:#ffffff;fill-opacity:1;fill-rule:evenodd;stroke:none"
         d="m 50.971,86.328 h 690.07 v 439.29 H 50.971 Z" />
      <path
         inkscape:connector-curvature="0"
         id="path827"
         style="fill:none;stroke:#d9d9d9;stroke-width:1.17579997;stroke-linecap:butt;stroke-linejoin:round;stroke-miterlimit:10;stroke-dasharray:none;stroke-opacity:1"
         d="M 110,139.44 H 720.22 M 110,248.87 H 720.22 M 110,303.43 H 720.22 M 110,358.18 H 720.22 M 110,412.74 H 720.22 M 110,467.47 h 610.22" />
      <path
         inkscape:connector-curvature="0"
         id="path829"
         style="fill:none;stroke:#d9d9d9;stroke-width:1.17579997;stroke-linecap:butt;stroke-linejoin:round;stroke-miterlimit:10;stroke-dasharray:none;stroke-opacity:1"
         d="M 171,467.47 V 139.44 m 60.95,328.03 V 139.44 M 293.1,467.47 V 139.44 m 60.95,328.03 V 139.44 M 415.2,467.47 V 139.44 m 60.95,328.03 V 139.44 m 60.96,328.03 V 139.44 m 61.14,328.03 V 139.44 M 659.2,467.47 V 139.44 m 61.02,328.03 V 139.44" />
      <path
         inkscape:connector-curvature="0"
         id="path831"
         style="fill:none;stroke:#bfbfbf;stroke-width:1.17579997;stroke-linecap:butt;stroke-linejoin:round;stroke-miterlimit:10;stroke-dasharray:none;stroke-opacity:1"
         d="M 110,139.44 V 467.47" />
      <path
         inkscape:connector-curvature="0"
         id="path833"
         style="fill:none;stroke:#bfbfbf;stroke-width:1.17579997;stroke-linecap:butt;stroke-linejoin:round;stroke-miterlimit:10;stroke-dasharray:none;stroke-opacity:1"
         d="M 110,194.11 H 720.22" />
      <g
         id="g835">
        <g
           clip-path="url(#clipPath841)"
           id="g837">
          <path
             inkscape:connector-curvature="0"
             id="path843"
             style="fill:none;stroke:#4472c4;stroke-width:2.35170007;stroke-linecap:round;stroke-linejoin:round;stroke-miterlimit:10;stroke-dasharray:none;stroke-opacity:1"
             d="m 110,194.71 c 10.17,0.32 20.34,-0.72 30.51,0.96 10.17,1.68 20.34,8.31 30.51,9.11 10.17,0.81 20.34,-4.95 30.51,-4.27 10.17,0.67 20.34,3.82 30.51,8.31 10.17,4.48 20.34,10.32 30.51,18.58 10.17,8.27 20.34,24.31 30.51,31 10.17,6.7 20.34,-2.65 30.52,9.19 10.17,11.84 20.34,48.69 30.51,61.85 10.17,13.16 20.34,8.02 30.51,17.11 10.17,9.08 20.34,38.07 30.51,37.39 10.17,-0.67 20.34,-28.66 30.51,-41.44 10.17,-12.78 20.34,-22.31 30.51,-35.24 10.17,-12.93 20.34,-30.12 30.51,-42.34 10.17,-12.22 20.34,-23.65 30.51,-30.97 10.17,-7.31 20.35,-7.97 30.52,-12.92 10.17,-4.95 20.34,-12.57 30.51,-16.8 10.17,-4.22 20.34,-6.85 30.51,-8.54 10.17,-1.68 20.34,-1.32 30.51,-1.58 10.17,-0.27 20.34,0 30.51,0 10.17,0 20.34,0 30.51,0" />
        </g>
      </g>
      <g
         id="g845">
        <g
           clip-path="url(#clipPath851)"
           id="g847">
          <path
             inkscape:connector-curvature="0"
             id="path853"
             style="fill:none;stroke:#ed7d31;stroke-width:2.35170007;stroke-linecap:round;stroke-linejoin:round;stroke-miterlimit:10;stroke-dasharray:none;stroke-opacity:1"
             d="m 110,194.11 c 10.17,0.01 20.34,0.02 30.51,0.03 10.17,0.01 20.34,-0.04 30.51,0.02 10.17,0.07 20.34,0.13 30.51,0.36 10.17,0.23 20.34,0.1 30.51,1.02 10.17,0.93 20.34,1.95 30.51,4.53 10.17,2.57 20.34,6.65 30.51,10.93 10.17,4.28 20.34,4.48 30.52,14.75 10.17,10.27 20.34,32.41 30.51,46.88 10.17,14.47 20.34,21.82 30.51,39.93 10.17,18.11 20.34,52.96 30.51,68.75 10.17,15.79 20.34,23.67 30.51,25.99 9.84,2.24 20.67,1.06 30.51,-12.06 10.17,-13.56 20.34,-47.74 30.51,-69.31 10.17,-21.56 20.34,-42.53 30.51,-60.09 10.17,-17.56 20.35,-34.57 30.52,-45.25 10.17,-10.67 20.34,-14.51 30.51,-18.79 10.17,-4.29 20.34,-5.64 30.51,-6.92 10.17,-1.27 20.34,-0.62 30.51,-0.75 10.17,-0.13 20.34,-0.02 30.51,-0.02 10.17,0 20.34,0 30.51,0" />
        </g>
      </g>
      <g
         id="g855">
        <g
           clip-path="url(#clipPath861)"
           id="g857">
          <text
             id="text865"
             style="font-variant:normal;font-weight:normal;font-size:14.11200047px;font-family:Calibri;-inkscape-font-specification:Calibri;writing-mode:lr-tb;fill:#595959;fill-opacity:1;fill-rule:nonzero;stroke:none"
             transform="matrix(1,0,0,-1,64.008,135.38)">
            <tspan
               id="tspan863"
               sodipodi:role="line"
               y="0"
               x="0 4.3200021 11.476516 18.63303 25.789543">-5000</tspan>
          </text>
        </g>
      </g>
      <g
         id="g867">
        <g
           clip-path="url(#clipPath873)"
           id="g869">
          <text
             id="text877"
             style="font-variant:normal;font-weight:normal;font-size:14.11200047px;font-family:Calibri;-inkscape-font-specification:Calibri;writing-mode:lr-tb;fill:#595959;fill-opacity:1;fill-rule:nonzero;stroke:none"
             transform="matrix(1,0,0,-1,89.76,190.06)">
            <tspan
               id="tspan875"
               y="0"
               x="0">0</tspan>
          </text>
        </g>
      </g>
      <g
         id="g879">
        <g
           clip-path="url(#clipPath885)"
           id="g881">
          <text
             id="text889"
             style="font-variant:normal;font-weight:normal;font-size:14.11200047px;font-family:Calibri;-inkscape-font-specification:Calibri;writing-mode:lr-tb;fill:#595959;fill-opacity:1;fill-rule:nonzero;stroke:none"
             transform="matrix(1,0,0,-1,68.328,244.75)">
            <tspan
               id="tspan887"
               sodipodi:role="line"
               y="0"
               x="0 7.1520038 14.304008 21.456013">5000</tspan>
          </text>
        </g>
      </g>
      <g
         id="g891">
        <g
           clip-path="url(#clipPath897)"
           id="g893">
          <text
             id="text901"
             style="font-variant:normal;font-weight:normal;font-size:14.11200047px;font-family:Calibri;-inkscape-font-specification:Calibri;writing-mode:lr-tb;fill:#595959;fill-opacity:1;fill-rule:nonzero;stroke:none"
             transform="matrix(1,0,0,-1,61.176,299.42)">
            <tspan
               id="tspan899"
               sodipodi:role="line"
               y="0"
               x="0 7.1520038 14.304008 21.456013 28.608015">10000</tspan>
          </text>
        </g>
      </g>
      <g
         id="g903">
        <g
           clip-path="url(#clipPath909)"
           id="g905">
          <text
             id="text913"
             style="font-variant:normal;font-weight:normal;font-size:14.11200047px;font-family:Calibri;-inkscape-font-specification:Calibri;writing-mode:lr-tb;fill:#595959;fill-opacity:1;fill-rule:nonzero;stroke:none"
             transform="matrix(1,0,0,-1,61.176,354.12)">
            <tspan
               id="tspan911"
               sodipodi:role="line"
               y="0"
               x="0 7.1520038 14.304008 21.456013 28.608015">15000</tspan>
          </text>
        </g>
      </g>
      <g
         id="g915">
        <g
           clip-path="url(#clipPath921)"
           id="g917">
          <text
             id="text925"
             style="font-variant:normal;font-weight:normal;font-size:14.11200047px;font-family:Calibri;-inkscape-font-specification:Calibri;writing-mode:lr-tb;fill:#595959;fill-opacity:1;fill-rule:nonzero;stroke:none"
             transform="matrix(1,0,0,-1,61.176,408.79)">
            <tspan
               id="tspan923"
               sodipodi:role="line"
               y="0"
               x="0 7.1520038 14.304008 21.456013 28.608015">20000</tspan>
          </text>
        </g>
      </g>
      <g
         id="g927">
        <g
           clip-path="url(#clipPath933)"
           id="g929">
          <text
             id="text937"
             style="font-variant:normal;font-weight:normal;font-size:14.11200047px;font-family:Calibri;-inkscape-font-specification:Calibri;writing-mode:lr-tb;fill:#595959;fill-opacity:1;fill-rule:nonzero;stroke:none"
             transform="matrix(1,0,0,-1,61.176,463.46)">
            <tspan
               id="tspan935"
               sodipodi:role="line"
               y="0"
               x="0 7.1520038 14.304008 21.456013 28.608015">25000</tspan>
          </text>
        </g>
      </g>
      <g
         id="g939">
        <g
           clip-path="url(#clipPath945)"
           id="g941">
          <text
             id="text949"
             style="font-variant:normal;font-weight:normal;font-size:14.11200047px;font-family:Calibri;-inkscape-font-specification:Calibri;writing-mode:lr-tb;fill:#595959;fill-opacity:1;fill-rule:nonzero;stroke:none"
             transform="matrix(1,0,0,-1,106.44,171.72)">
            <tspan
               id="tspan947"
               y="0"
               x="0">1</tspan>
          </text>
        </g>
      </g>
      <g
         id="g951">
        <g
           clip-path="url(#clipPath957)"
           id="g953">
          <text
             id="text961"
             style="font-variant:normal;font-weight:normal;font-size:14.11200047px;font-family:Calibri;-inkscape-font-specification:Calibri;writing-mode:lr-tb;fill:#595959;fill-opacity:1;fill-rule:nonzero;stroke:none"
             transform="matrix(1,0,0,-1,162.12,171.72)">
            <tspan
               id="tspan959"
               sodipodi:role="line"
               y="0"
               x="0 7.1547842 10.711008">1.2</tspan>
          </text>
        </g>
      </g>
      <g
         id="g963">
        <g
           clip-path="url(#clipPath969)"
           id="g965">
          <text
             id="text973"
             style="font-variant:normal;font-weight:normal;font-size:14.11200047px;font-family:Calibri;-inkscape-font-specification:Calibri;writing-mode:lr-tb;fill:#595959;fill-opacity:1;fill-rule:nonzero;stroke:none"
             transform="matrix(1,0,0,-1,223.15,171.72)">
            <tspan
               id="tspan971"
               sodipodi:role="line"
               y="0"
               x="0 7.1547842 10.711008">1.4</tspan>
          </text>
        </g>
      </g>
      <g
         id="g975">
        <g
           clip-path="url(#clipPath981)"
           id="g977">
          <text
             id="text985"
             style="font-variant:normal;font-weight:normal;font-size:14.11200047px;font-family:Calibri;-inkscape-font-specification:Calibri;writing-mode:lr-tb;fill:#595959;fill-opacity:1;fill-rule:nonzero;stroke:none"
             transform="matrix(1,0,0,-1,284.18,171.72)">
            <tspan
               id="tspan983"
               sodipodi:role="line"
               y="0"
               x="0 7.1547842 10.711008">1.6</tspan>
          </text>
        </g>
      </g>
      <g
         id="g987">
        <g
           clip-path="url(#clipPath993)"
           id="g989">
          <text
             id="text997"
             style="font-variant:normal;font-weight:normal;font-size:14.11200047px;font-family:Calibri;-inkscape-font-specification:Calibri;writing-mode:lr-tb;fill:#595959;fill-opacity:1;fill-rule:nonzero;stroke:none"
             transform="matrix(1,0,0,-1,345.22,171.72)">
            <tspan
               id="tspan995"
               sodipodi:role="line"
               y="0"
               x="0 7.1547842 10.711008">1.8</tspan>
          </text>
        </g>
      </g>
      <g
         id="g999">
        <g
           clip-path="url(#clipPath1005)"
           id="g1001">
          <text
             id="text1009"
             style="font-variant:normal;font-weight:normal;font-size:14.11200047px;font-family:Calibri;-inkscape-font-specification:Calibri;writing-mode:lr-tb;fill:#595959;fill-opacity:1;fill-rule:nonzero;stroke:none"
             transform="matrix(1,0,0,-1,411.6,171.72)">
            <tspan
               id="tspan1007"
               y="0"
               x="0">2</tspan>
          </text>
        </g>
      </g>
      <g
         id="g1011">
        <g
           clip-path="url(#clipPath1017)"
           id="g1013">
          <text
             id="text1021"
             style="font-variant:normal;font-weight:normal;font-size:14.11200047px;font-family:Calibri;-inkscape-font-specification:Calibri;writing-mode:lr-tb;fill:#595959;fill-opacity:1;fill-rule:nonzero;stroke:none"
             transform="matrix(1,0,0,-1,467.28,171.72)">
            <tspan
               id="tspan1019"
               sodipodi:role="line"
               y="0"
               x="0 7.1547842 10.711008">2.2</tspan>
          </text>
        </g>
      </g>
      <g
         id="g1023">
        <g
           clip-path="url(#clipPath1029)"
           id="g1025">
          <text
             id="text1033"
             style="font-variant:normal;font-weight:normal;font-size:14.11200047px;font-family:Calibri;-inkscape-font-specification:Calibri;writing-mode:lr-tb;fill:#595959;fill-opacity:1;fill-rule:nonzero;stroke:none"
             transform="matrix(1,0,0,-1,528.31,171.72)">
            <tspan
               id="tspan1031"
               sodipodi:role="line"
               y="0"
               x="0 7.1547842 10.711008">2.4</tspan>
          </text>
        </g>
      </g>
      <g
         id="g1035">
        <g
           clip-path="url(#clipPath1041)"
           id="g1037">
          <text
             id="text1045"
             style="font-variant:normal;font-weight:normal;font-size:14.11200047px;font-family:Calibri;-inkscape-font-specification:Calibri;writing-mode:lr-tb;fill:#595959;fill-opacity:1;fill-rule:nonzero;stroke:none"
             transform="matrix(1,0,0,-1,589.34,171.72)">
            <tspan
               id="tspan1043"
               sodipodi:role="line"
               y="0"
               x="0 7.1547842 10.711008">2.6</tspan>
          </text>
        </g>
      </g>
      <g
         id="g1047">
        <g
           clip-path="url(#clipPath1053)"
           id="g1049">
          <text
             id="text1057"
             style="font-variant:normal;font-weight:normal;font-size:14.11200047px;font-family:Calibri;-inkscape-font-specification:Calibri;writing-mode:lr-tb;fill:#595959;fill-opacity:1;fill-rule:nonzero;stroke:none"
             transform="matrix(1,0,0,-1,650.38,171.72)">
            <tspan
               id="tspan1055"
               sodipodi:role="line"
               y="0"
               x="0 7.1547842 10.711008">2.8</tspan>
          </text>
        </g>
      </g>
      <g
         id="g1059">
        <g
           clip-path="url(#clipPath1065)"
           id="g1061">
          <text
             id="text1069"
             style="font-variant:normal;font-weight:normal;font-size:14.11200047px;font-family:Calibri;-inkscape-font-specification:Calibri;writing-mode:lr-tb;fill:#595959;fill-opacity:1;fill-rule:nonzero;stroke:none"
             transform="matrix(1,0,0,-1,716.76,171.72)">
            <tspan
               id="tspan1067"
               y="0"
               x="0">3</tspan>
          </text>
        </g>
      </g>
      <g
         id="g1071">
        <g
           clip-path="url(#clipPath1077)"
           id="g1073">
          <text
             id="text1081"
             style="font-variant:normal;font-weight:normal;font-size:22.03199959px;font-family:Calibri;-inkscape-font-specification:Calibri;writing-mode:lr-tb;fill:#595959;fill-opacity:1;fill-rule:nonzero;stroke:none"
             transform="matrix(1,0,0,-1,250.01,492.96)">
            <tspan
               id="tspan1079"
               sodipodi:role="line"
               y="0"
               x="0 13.54968 18.617041 27.121391 34.502113 42.19128 47.25864 58.759342 70.238014 77.618736 82.686096 94.296959 105.86376 110.51251 122.12337 128.93126 133.82237 143.93506 155.50186 166.05519 177.46776 188.94643 200.5573 212.1241 222.0385 233.01044 244.26878 251.64951 258.96414 270.57498 281.92148">Distribution of Shannon entropy</tspan>
          </text>
        </g>
      </g>
      <path
         inkscape:connector-curvature="0"
         id="path1083"
         style="fill:none;stroke:#4472c4;stroke-width:2.35170007;stroke-linecap:round;stroke-linejoin:round;stroke-miterlimit:10;stroke-dasharray:none;stroke-opacity:1"
         d="m 306.04,108.96 h 30.1" />
      <g
         id="g1085">
        <g
           clip-path="url(#clipPath1091)"
           id="g1087">
          <text
             id="text1095"
             style="font-variant:normal;font-weight:normal;font-size:14.11200047px;font-family:Calibri;-inkscape-font-specification:Calibri;writing-mode:lr-tb;fill:#595959;fill-opacity:1;fill-rule:nonzero;stroke:none"
             transform="matrix(1,0,0,-1,339.36,104.9)">
            <tspan
               id="tspan1093"
               sodipodi:role="line"
               y="0"
               x="0 7.5216961 15.057504 22.395744 27.842976 34.983646 40.811905 48.333599 53.061119 56.23632 62.614944">Consecutive</tspan>
          </text>
        </g>
      </g>
      <path
         inkscape:connector-curvature="0"
         id="path1097"
         style="fill:none;stroke:#ed7d31;stroke-width:2.35170007;stroke-linecap:round;stroke-linejoin:round;stroke-miterlimit:10;stroke-dasharray:none;stroke-opacity:1"
         d="m 425.19,108.96 h 30.1" />
      <g
         id="g1099">
        <g
           clip-path="url(#clipPath1105)"
           id="g1101">
          <text
             id="text1109"
             style="font-variant:normal;font-weight:normal;font-size:14.11200047px;font-family:Calibri;-inkscape-font-specification:Calibri;writing-mode:lr-tb;fill:#595959;fill-opacity:1;fill-rule:nonzero;stroke:none"
             transform="matrix(1,0,0,-1,458.54,104.9)">
            <tspan
               id="tspan1107"
               sodipodi:role="line"
               y="0"
               x="0 7.5216961 10.711008 18.204479 25.528608">Cloud</tspan>
          </text>
        </g>
      </g>
      <g
         id="g1111">
        <g
           clip-path="url(#clipPath1117)"
           id="g1113">
          <path
             inkscape:connector-curvature="0"
             id="path1119"
             style="fill:none;stroke:#d9d9d9;stroke-width:1.17579997;stroke-linecap:butt;stroke-linejoin:round;stroke-miterlimit:10;stroke-dasharray:none;stroke-opacity:1"
             d="m 50.971,86.328 h 690.07 v 439.29 H 50.971 Z" />
        </g>
      </g>
    </g>
  </g>
</svg>
