<?xml version="1.0" encoding="UTF-8" standalone="no"?>
<!-- Created with Inkscape (http://www.inkscape.org/) -->

<svg
   xmlns:dc="http://purl.org/dc/elements/1.1/"
   xmlns:cc="http://creativecommons.org/ns#"
   xmlns:rdf="http://www.w3.org/1999/02/22-rdf-syntax-ns#"
   xmlns:svg="http://www.w3.org/2000/svg"
   xmlns="http://www.w3.org/2000/svg"
   xmlns:sodipodi="http://sodipodi.sourceforge.net/DTD/sodipodi-0.dtd"
   xmlns:inkscape="http://www.inkscape.org/namespaces/inkscape"
   width="244.79312mm"
   height="276.59296mm"
   viewBox="0 0 244.79313 276.59296"
   version="1.1"
   id="svg8"
   inkscape:version="0.92.4 (5da689c313, 2019-01-14)"
   sodipodi:docname="DistributionShifts.svg">
  <defs
     id="defs2">
    <clipPath
       id="clipPath841"
       clipPathUnits="userSpaceOnUse">
      <path
         style="clip-rule:evenodd"
         inkscape:connector-curvature="0"
         id="path839"
         d="M 109.86,138.44 H 721.29 V 467.48 H 109.86 Z" />
    </clipPath>
    <clipPath
       id="clipPath851"
       clipPathUnits="userSpaceOnUse">
      <path
         style="clip-rule:evenodd"
         inkscape:connector-curvature="0"
         id="path849"
         d="M 109.86,138.44 H 721.29 V 467.48 H 109.86 Z" />
    </clipPath>
    <clipPath
       id="clipPath861"
       clipPathUnits="userSpaceOnUse">
      <path
         style="clip-rule:evenodd"
         inkscape:connector-curvature="0"
         id="path859"
         d="M 50.88,86.28 H 741.12 V 525.6 H 50.88 Z" />
    </clipPath>
    <clipPath
       id="clipPath873"
       clipPathUnits="userSpaceOnUse">
      <path
         style="clip-rule:evenodd"
         inkscape:connector-curvature="0"
         id="path871"
         d="M 50.88,86.28 H 741.12 V 525.6 H 50.88 Z" />
    </clipPath>
    <clipPath
       id="clipPath885"
       clipPathUnits="userSpaceOnUse">
      <path
         style="clip-rule:evenodd"
         inkscape:connector-curvature="0"
         id="path883"
         d="M 50.88,86.28 H 741.12 V 525.6 H 50.88 Z" />
    </clipPath>
    <clipPath
       id="clipPath897"
       clipPathUnits="userSpaceOnUse">
      <path
         style="clip-rule:evenodd"
         inkscape:connector-curvature="0"
         id="path895"
         d="M 50.88,86.28 H 741.12 V 525.6 H 50.88 Z" />
    </clipPath>
    <clipPath
       id="clipPath909"
       clipPathUnits="userSpaceOnUse">
      <path
         style="clip-rule:evenodd"
         inkscape:connector-curvature="0"
         id="path907"
         d="M 50.88,86.28 H 741.12 V 525.6 H 50.88 Z" />
    </clipPath>
    <clipPath
       id="clipPath921"
       clipPathUnits="userSpaceOnUse">
      <path
         style="clip-rule:evenodd"
         inkscape:connector-curvature="0"
         id="path919"
         d="M 50.88,86.28 H 741.12 V 525.6 H 50.88 Z" />
    </clipPath>
    <clipPath
       id="clipPath933"
       clipPathUnits="userSpaceOnUse">
      <path
         style="clip-rule:evenodd"
         inkscape:connector-curvature="0"
         id="path931"
         d="M 50.88,86.28 H 741.12 V 525.6 H 50.88 Z" />
    </clipPath>
    <clipPath
       id="clipPath945"
       clipPathUnits="userSpaceOnUse">
      <path
         style="clip-rule:evenodd"
         inkscape:connector-curvature="0"
         id="path943"
         d="M 50.88,86.28 H 741.12 V 525.6 H 50.88 Z" />
    </clipPath>
    <clipPath
       id="clipPath957"
       clipPathUnits="userSpaceOnUse">
      <path
         style="clip-rule:evenodd"
         inkscape:connector-curvature="0"
         id="path955"
         d="M 50.88,86.28 H 741.12 V 525.6 H 50.88 Z" />
    </clipPath>
    <clipPath
       id="clipPath969"
       clipPathUnits="userSpaceOnUse">
      <path
         style="clip-rule:evenodd"
         inkscape:connector-curvature="0"
         id="path967"
         d="M 50.88,86.28 H 741.12 V 525.6 H 50.88 Z" />
    </clipPath>
    <clipPath
       id="clipPath981"
       clipPathUnits="userSpaceOnUse">
      <path
         style="clip-rule:evenodd"
         inkscape:connector-curvature="0"
         id="path979"
         d="M 50.88,86.28 H 741.12 V 525.6 H 50.88 Z" />
    </clipPath>
    <clipPath
       id="clipPath993"
       clipPathUnits="userSpaceOnUse">
      <path
         style="clip-rule:evenodd"
         inkscape:connector-curvature="0"
         id="path991"
         d="M 50.88,86.28 H 741.12 V 525.6 H 50.88 Z" />
    </clipPath>
    <clipPath
       id="clipPath1005"
       clipPathUnits="userSpaceOnUse">
      <path
         style="clip-rule:evenodd"
         inkscape:connector-curvature="0"
         id="path1003"
         d="M 50.88,86.28 H 741.12 V 525.6 H 50.88 Z" />
    </clipPath>
    <clipPath
       id="clipPath1017"
       clipPathUnits="userSpaceOnUse">
      <path
         style="clip-rule:evenodd"
         inkscape:connector-curvature="0"
         id="path1015"
         d="M 50.88,86.28 H 741.12 V 525.6 H 50.88 Z" />
    </clipPath>
    <clipPath
       id="clipPath1029"
       clipPathUnits="userSpaceOnUse">
      <path
         style="clip-rule:evenodd"
         inkscape:connector-curvature="0"
         id="path1027"
         d="M 50.88,86.28 H 741.12 V 525.6 H 50.88 Z" />
    </clipPath>
    <clipPath
       id="clipPath1041"
       clipPathUnits="userSpaceOnUse">
      <path
         style="clip-rule:evenodd"
         inkscape:connector-curvature="0"
         id="path1039"
         d="M 50.88,86.28 H 741.12 V 525.6 H 50.88 Z" />
    </clipPath>
    <clipPath
       id="clipPath1053"
       clipPathUnits="userSpaceOnUse">
      <path
         style="clip-rule:evenodd"
         inkscape:connector-curvature="0"
         id="path1051"
         d="M 50.88,86.28 H 741.12 V 525.6 H 50.88 Z" />
    </clipPath>
    <clipPath
       id="clipPath1065"
       clipPathUnits="userSpaceOnUse">
      <path
         style="clip-rule:evenodd"
         inkscape:connector-curvature="0"
         id="path1063"
         d="M 50.88,86.28 H 741.12 V 525.6 H 50.88 Z" />
    </clipPath>
    <clipPath
       id="clipPath1077"
       clipPathUnits="userSpaceOnUse">
      <path
         style="clip-rule:evenodd"
         inkscape:connector-curvature="0"
         id="path1075"
         d="M 50.88,86.28 H 741.12 V 525.6 H 50.88 Z" />
    </clipPath>
    <clipPath
       id="clipPath1091"
       clipPathUnits="userSpaceOnUse">
      <path
         style="clip-rule:evenodd"
         inkscape:connector-curvature="0"
         id="path1089"
         d="M 50.88,86.28 H 741.12 V 525.6 H 50.88 Z" />
    </clipPath>
    <clipPath
       id="clipPath1105"
       clipPathUnits="userSpaceOnUse">
      <path
         style="clip-rule:evenodd"
         inkscape:connector-curvature="0"
         id="path1103"
         d="M 50.88,86.28 H 741.12 V 525.6 H 50.88 Z" />
    </clipPath>
    <clipPath
       id="clipPath1117"
       clipPathUnits="userSpaceOnUse">
      <path
         style="clip-rule:evenodd"
         inkscape:connector-curvature="0"
         id="path1115"
         d="M 50.4,85.8 H 741.6 V 526.2 H 50.4 Z" />
    </clipPath>
    <clipPath
       id="clipPath1542"
       clipPathUnits="userSpaceOnUse">
      <path
         style="clip-rule:evenodd"
         inkscape:connector-curvature="0"
         id="path1540"
         d="M 51,134.28 H 741.24 V 477.6 H 51 Z" />
    </clipPath>
    <clipPath
       id="clipPath1554"
       clipPathUnits="userSpaceOnUse">
      <path
         style="clip-rule:evenodd"
         inkscape:connector-curvature="0"
         id="path1552"
         d="M 51,134.28 H 741.24 V 477.6 H 51 Z" />
    </clipPath>
    <clipPath
       id="clipPath1566"
       clipPathUnits="userSpaceOnUse">
      <path
         style="clip-rule:evenodd"
         inkscape:connector-curvature="0"
         id="path1564"
         d="M 51,134.28 H 741.24 V 477.6 H 51 Z" />
    </clipPath>
    <clipPath
       id="clipPath1578"
       clipPathUnits="userSpaceOnUse">
      <path
         style="clip-rule:evenodd"
         inkscape:connector-curvature="0"
         id="path1576"
         d="M 51,134.28 H 741.24 V 477.6 H 51 Z" />
    </clipPath>
    <clipPath
       id="clipPath1590"
       clipPathUnits="userSpaceOnUse">
      <path
         style="clip-rule:evenodd"
         inkscape:connector-curvature="0"
         id="path1588"
         d="M 51,134.28 H 741.24 V 477.6 H 51 Z" />
    </clipPath>
    <clipPath
       id="clipPath1602"
       clipPathUnits="userSpaceOnUse">
      <path
         style="clip-rule:evenodd"
         inkscape:connector-curvature="0"
         id="path1600"
         d="M 51,134.28 H 741.24 V 477.6 H 51 Z" />
    </clipPath>
    <clipPath
       id="clipPath1614"
       clipPathUnits="userSpaceOnUse">
      <path
         style="clip-rule:evenodd"
         inkscape:connector-curvature="0"
         id="path1612"
         d="M 51,134.28 H 741.24 V 477.6 H 51 Z" />
    </clipPath>
    <clipPath
       id="clipPath1626"
       clipPathUnits="userSpaceOnUse">
      <path
         style="clip-rule:evenodd"
         inkscape:connector-curvature="0"
         id="path1624"
         d="M 51,134.28 H 741.24 V 477.6 H 51 Z" />
    </clipPath>
    <clipPath
       id="clipPath1638"
       clipPathUnits="userSpaceOnUse">
      <path
         style="clip-rule:evenodd"
         inkscape:connector-curvature="0"
         id="path1636"
         d="M 51,134.28 H 741.24 V 477.6 H 51 Z" />
    </clipPath>
    <clipPath
       id="clipPath1650"
       clipPathUnits="userSpaceOnUse">
      <path
         style="clip-rule:evenodd"
         inkscape:connector-curvature="0"
         id="path1648"
         d="M 51,134.28 H 741.24 V 477.6 H 51 Z" />
    </clipPath>
    <clipPath
       id="clipPath1662"
       clipPathUnits="userSpaceOnUse">
      <path
         style="clip-rule:evenodd"
         inkscape:connector-curvature="0"
         id="path1660"
         d="M 51,134.28 H 741.24 V 477.6 H 51 Z" />
    </clipPath>
    <clipPath
       id="clipPath1674"
       clipPathUnits="userSpaceOnUse">
      <path
         style="clip-rule:evenodd"
         inkscape:connector-curvature="0"
         id="path1672"
         d="M 51,134.28 H 741.24 V 477.6 H 51 Z" />
    </clipPath>
    <clipPath
       id="clipPath1686"
       clipPathUnits="userSpaceOnUse">
      <path
         style="clip-rule:evenodd"
         inkscape:connector-curvature="0"
         id="path1684"
         d="M 51,134.28 H 741.24 V 477.6 H 51 Z" />
    </clipPath>
    <clipPath
       id="clipPath1698"
       clipPathUnits="userSpaceOnUse">
      <path
         style="clip-rule:evenodd"
         inkscape:connector-curvature="0"
         id="path1696"
         d="M 51,134.28 H 741.24 V 477.6 H 51 Z" />
    </clipPath>
    <clipPath
       id="clipPath1710"
       clipPathUnits="userSpaceOnUse">
      <path
         style="clip-rule:evenodd"
         inkscape:connector-curvature="0"
         id="path1708"
         d="M 51,134.28 H 741.24 V 477.6 H 51 Z" />
    </clipPath>
    <clipPath
       id="clipPath1722"
       clipPathUnits="userSpaceOnUse">
      <path
         style="clip-rule:evenodd"
         inkscape:connector-curvature="0"
         id="path1720"
         d="M 51,134.28 H 741.24 V 477.6 H 51 Z" />
    </clipPath>
    <clipPath
       id="clipPath1736"
       clipPathUnits="userSpaceOnUse">
      <path
         style="clip-rule:evenodd"
         inkscape:connector-curvature="0"
         id="path1734"
         d="M 51,134.28 H 741.24 V 477.6 H 51 Z" />
    </clipPath>
    <clipPath
       id="clipPath1750"
       clipPathUnits="userSpaceOnUse">
      <path
         style="clip-rule:evenodd"
         inkscape:connector-curvature="0"
         id="path1748"
         d="M 51,134.28 H 741.24 V 477.6 H 51 Z" />
    </clipPath>
    <clipPath
       id="clipPath1762"
       clipPathUnits="userSpaceOnUse">
      <path
         style="clip-rule:evenodd"
         inkscape:connector-curvature="0"
         id="path1760"
         d="M 50.4,133.92 H 741.6 V 478.2 H 50.4 Z" />
    </clipPath>
  </defs>
  <sodipodi:namedview
     id="base"
     pagecolor="#ffffff"
     bordercolor="#666666"
     borderopacity="1.0"
     inkscape:pageopacity="0.0"
     inkscape:pageshadow="2"
     inkscape:zoom="0.7"
     inkscape:cx="678.59678"
     inkscape:cy="624.1799"
     inkscape:document-units="mm"
     inkscape:current-layer="layer1"
     showgrid="false"
     fit-margin-top="0"
     fit-margin-left="0"
     fit-margin-right="0"
     fit-margin-bottom="0"
     inkscape:window-width="1920"
     inkscape:window-height="789"
     inkscape:window-x="-8"
     inkscape:window-y="220"
     inkscape:window-maximized="1"
     showguides="true"
     inkscape:guide-bbox="true" />
  <metadata
     id="metadata5">
    <rdf:RDF>
      <cc:Work
         rdf:about="">
        <dc:format>image/svg+xml</dc:format>
        <dc:type
           rdf:resource="http://purl.org/dc/dcmitype/StillImage" />
        <dc:title></dc:title>
      </cc:Work>
    </rdf:RDF>
  </metadata>
  <g
     inkscape:label="Layer 1"
     inkscape:groupmode="layer"
     id="layer1"
     transform="translate(14.574762,52.345811)">
    <path
       d="M -13.62163,224.06088 H 229.81973 V 69.089134 H -13.62163 Z"
       style="fill:#ffffff;fill-opacity:1;fill-rule:evenodd;stroke:none;stroke-width:0.35277778"
       id="path825"
       inkscape:connector-curvature="0" />
    <path
       d="M 6.4507927,205.32415 H 221.72284 M 6.4507927,166.71968 H 221.72284 M 6.4507927,147.47212 H 221.72284 M 6.4507927,128.15754 H 221.72284 M 6.4507927,108.90998 H 221.72284 M 6.4507927,89.602456 H 221.72284"
       style="fill:none;stroke:#d9d9d9;stroke-width:0.41479608;stroke-linecap:butt;stroke-linejoin:round;stroke-miterlimit:10;stroke-dasharray:none;stroke-opacity:1"
       id="path827"
       inkscape:connector-curvature="0" />
    <path
       d="M 27.970237,89.602456 V 205.32415 M 49.472042,89.602456 V 205.32415 M 71.044402,89.602456 V 205.32415 M 92.546207,89.602456 V 205.32415 M 114.11857,89.602456 V 205.32415 M 135.62037,89.602456 V 205.32415 M 157.12571,89.602456 V 205.32415 M 178.69454,89.602456 V 205.32415 M 200.19634,89.602456 V 205.32415 M 221.72284,89.602456 V 205.32415"
       style="fill:none;stroke:#d9d9d9;stroke-width:0.41479608;stroke-linecap:butt;stroke-linejoin:round;stroke-miterlimit:10;stroke-dasharray:none;stroke-opacity:1"
       id="path829"
       inkscape:connector-curvature="0" />
    <path
       d="M 6.4507927,205.32415 V 89.602456"
       style="fill:none;stroke:#bfbfbf;stroke-width:0.41479608;stroke-linecap:butt;stroke-linejoin:round;stroke-miterlimit:10;stroke-dasharray:none;stroke-opacity:1"
       id="path831"
       inkscape:connector-curvature="0" />
    <path
       d="M 6.4507927,186.03779 H 221.72284"
       style="fill:none;stroke:#bfbfbf;stroke-width:0.41479608;stroke-linecap:butt;stroke-linejoin:round;stroke-miterlimit:10;stroke-dasharray:none;stroke-opacity:1"
       id="path833"
       inkscape:connector-curvature="0" />
    <g
       id="g835"
       transform="matrix(0.35277777,0,0,-0.35277777,-32.354762,254.51548)">
      <g
         id="g837"
         clip-path="url(#clipPath841)">
        <path
           d="m 110,194.71 c 10.17,0.32 20.34,-0.72 30.51,0.96 10.17,1.68 20.34,8.31 30.51,9.11 10.17,0.81 20.34,-4.95 30.51,-4.27 10.17,0.67 20.34,3.82 30.51,8.31 10.17,4.48 20.34,10.32 30.51,18.58 10.17,8.27 20.34,24.31 30.51,31 10.17,6.7 20.34,-2.65 30.52,9.19 10.17,11.84 20.34,48.69 30.51,61.85 10.17,13.16 20.34,8.02 30.51,17.11 10.17,9.08 20.34,38.07 30.51,37.39 10.17,-0.67 20.34,-28.66 30.51,-41.44 10.17,-12.78 20.34,-22.31 30.51,-35.24 10.17,-12.93 20.34,-30.12 30.51,-42.34 10.17,-12.22 20.34,-23.65 30.51,-30.97 10.17,-7.31 20.35,-7.97 30.52,-12.92 10.17,-4.95 20.34,-12.57 30.51,-16.8 10.17,-4.22 20.34,-6.85 30.51,-8.54 10.17,-1.68 20.34,-1.32 30.51,-1.58 10.17,-0.27 20.34,0 30.51,0 10.17,0 20.34,0 30.51,0"
           style="fill:none;stroke:#4472c4;stroke-width:2.35170007;stroke-linecap:round;stroke-linejoin:round;stroke-miterlimit:10;stroke-dasharray:none;stroke-opacity:1"
           id="path843"
           inkscape:connector-curvature="0" />
      </g>
    </g>
    <g
       id="g845"
       transform="matrix(0.35277777,0,0,-0.35277777,-32.354762,254.51548)">
      <g
         id="g847"
         clip-path="url(#clipPath851)">
        <path
           d="m 110,194.11 c 10.17,0.01 20.34,0.02 30.51,0.03 10.17,0.01 20.34,-0.04 30.51,0.02 10.17,0.07 20.34,0.13 30.51,0.36 10.17,0.23 20.34,0.1 30.51,1.02 10.17,0.93 20.34,1.95 30.51,4.53 10.17,2.57 20.34,6.65 30.51,10.93 10.17,4.28 20.34,4.48 30.52,14.75 10.17,10.27 20.34,32.41 30.51,46.88 10.17,14.47 20.34,21.82 30.51,39.93 10.17,18.11 20.34,52.96 30.51,68.75 10.17,15.79 20.34,23.67 30.51,25.99 9.84,2.24 20.67,1.06 30.51,-12.06 10.17,-13.56 20.34,-47.74 30.51,-69.31 10.17,-21.56 20.34,-42.53 30.51,-60.09 10.17,-17.56 20.35,-34.57 30.52,-45.25 10.17,-10.67 20.34,-14.51 30.51,-18.79 10.17,-4.29 20.34,-5.64 30.51,-6.92 10.17,-1.27 20.34,-0.62 30.51,-0.75 10.17,-0.13 20.34,-0.02 30.51,-0.02 10.17,0 20.34,0 30.51,0"
           style="fill:none;stroke:#ed7d31;stroke-width:2.35170007;stroke-linecap:round;stroke-linejoin:round;stroke-miterlimit:10;stroke-dasharray:none;stroke-opacity:1"
           id="path853"
           inkscape:connector-curvature="0" />
      </g>
    </g>
    <g
       id="g855"
       transform="matrix(0.35277777,0,0,-0.35277777,-32.354762,254.51548)">
      <g
         id="g857"
         clip-path="url(#clipPath861)">
        <text
           transform="matrix(1,0,0,-1,64.008,135.38)"
           style="font-variant:normal;font-weight:normal;font-size:14.11200047px;font-family:Calibri;-inkscape-font-specification:Calibri;writing-mode:lr-tb;fill:#595959;fill-opacity:1;fill-rule:nonzero;stroke:none"
           id="text865">
          <tspan
             x="0 4.3200021 11.476516 18.63303 25.789543"
             y="0"
             sodipodi:role="line"
             id="tspan863">-5000</tspan>
        </text>
      </g>
    </g>
    <g
       id="g867"
       transform="matrix(0.35277777,0,0,-0.35277777,-32.354762,254.51548)">
      <g
         id="g869"
         clip-path="url(#clipPath873)">
        <text
           transform="matrix(1,0,0,-1,89.76,190.06)"
           style="font-variant:normal;font-weight:normal;font-size:14.11200047px;font-family:Calibri;-inkscape-font-specification:Calibri;writing-mode:lr-tb;fill:#595959;fill-opacity:1;fill-rule:nonzero;stroke:none"
           id="text877">
          <tspan
             x="0"
             y="0"
             id="tspan875">0</tspan>
        </text>
      </g>
    </g>
    <g
       id="g879"
       transform="matrix(0.35277777,0,0,-0.35277777,-32.354762,254.51548)">
      <g
         id="g881"
         clip-path="url(#clipPath885)">
        <text
           transform="matrix(1,0,0,-1,68.328,244.75)"
           style="font-variant:normal;font-weight:normal;font-size:14.11200047px;font-family:Calibri;-inkscape-font-specification:Calibri;writing-mode:lr-tb;fill:#595959;fill-opacity:1;fill-rule:nonzero;stroke:none"
           id="text889">
          <tspan
             x="0 7.1520038 14.304008 21.456013"
             y="0"
             sodipodi:role="line"
             id="tspan887">5000</tspan>
        </text>
      </g>
    </g>
    <g
       id="g891"
       transform="matrix(0.35277777,0,0,-0.35277777,-32.354762,254.51548)">
      <g
         id="g893"
         clip-path="url(#clipPath897)">
        <text
           transform="matrix(1,0,0,-1,61.176,299.42)"
           style="font-variant:normal;font-weight:normal;font-size:14.11200047px;font-family:Calibri;-inkscape-font-specification:Calibri;writing-mode:lr-tb;fill:#595959;fill-opacity:1;fill-rule:nonzero;stroke:none"
           id="text901">
          <tspan
             x="0 7.1520038 14.304008 21.456013 28.608015"
             y="0"
             sodipodi:role="line"
             id="tspan899">10000</tspan>
        </text>
      </g>
    </g>
    <g
       id="g903"
       transform="matrix(0.35277777,0,0,-0.35277777,-32.354762,254.51548)">
      <g
         id="g905"
         clip-path="url(#clipPath909)">
        <text
           transform="matrix(1,0,0,-1,61.176,354.12)"
           style="font-variant:normal;font-weight:normal;font-size:14.11200047px;font-family:Calibri;-inkscape-font-specification:Calibri;writing-mode:lr-tb;fill:#595959;fill-opacity:1;fill-rule:nonzero;stroke:none"
           id="text913">
          <tspan
             x="0 7.1520038 14.304008 21.456013 28.608015"
             y="0"
             sodipodi:role="line"
             id="tspan911">15000</tspan>
        </text>
      </g>
    </g>
    <g
       id="g915"
       transform="matrix(0.35277777,0,0,-0.35277777,-32.354762,254.51548)">
      <g
         id="g917"
         clip-path="url(#clipPath921)">
        <text
           transform="matrix(1,0,0,-1,61.176,408.79)"
           style="font-variant:normal;font-weight:normal;font-size:14.11200047px;font-family:Calibri;-inkscape-font-specification:Calibri;writing-mode:lr-tb;fill:#595959;fill-opacity:1;fill-rule:nonzero;stroke:none"
           id="text925">
          <tspan
             x="0 7.1520038 14.304008 21.456013 28.608015"
             y="0"
             sodipodi:role="line"
             id="tspan923">20000</tspan>
        </text>
      </g>
    </g>
    <g
       id="g927"
       transform="matrix(0.35277777,0,0,-0.35277777,-32.354762,254.51548)">
      <g
         id="g929"
         clip-path="url(#clipPath933)">
        <text
           transform="matrix(1,0,0,-1,61.176,463.46)"
           style="font-variant:normal;font-weight:normal;font-size:14.11200047px;font-family:Calibri;-inkscape-font-specification:Calibri;writing-mode:lr-tb;fill:#595959;fill-opacity:1;fill-rule:nonzero;stroke:none"
           id="text937">
          <tspan
             x="0 7.1520038 14.304008 21.456013 28.608015"
             y="0"
             sodipodi:role="line"
             id="tspan935">25000</tspan>
        </text>
      </g>
    </g>
    <g
       id="g939"
       transform="matrix(0.35277777,0,0,-0.35277777,-32.354762,254.51548)">
      <g
         id="g941"
         clip-path="url(#clipPath945)">
        <text
           transform="matrix(1,0,0,-1,106.44,171.72)"
           style="font-variant:normal;font-weight:normal;font-size:14.11200047px;font-family:Calibri;-inkscape-font-specification:Calibri;writing-mode:lr-tb;fill:#595959;fill-opacity:1;fill-rule:nonzero;stroke:none"
           id="text949">
          <tspan
             x="0"
             y="0"
             id="tspan947">1</tspan>
        </text>
      </g>
    </g>
    <g
       id="g951"
       transform="matrix(0.35277777,0,0,-0.35277777,-32.354762,254.51548)">
      <g
         id="g953"
         clip-path="url(#clipPath957)">
        <text
           transform="matrix(1,0,0,-1,162.12,171.72)"
           style="font-variant:normal;font-weight:normal;font-size:14.11200047px;font-family:Calibri;-inkscape-font-specification:Calibri;writing-mode:lr-tb;fill:#595959;fill-opacity:1;fill-rule:nonzero;stroke:none"
           id="text961">
          <tspan
             x="0 7.1547842 10.711008"
             y="0"
             sodipodi:role="line"
             id="tspan959">1.2</tspan>
        </text>
      </g>
    </g>
    <g
       id="g963"
       transform="matrix(0.35277777,0,0,-0.35277777,-32.354762,254.51548)">
      <g
         id="g965"
         clip-path="url(#clipPath969)">
        <text
           transform="matrix(1,0,0,-1,223.15,171.72)"
           style="font-variant:normal;font-weight:normal;font-size:14.11200047px;font-family:Calibri;-inkscape-font-specification:Calibri;writing-mode:lr-tb;fill:#595959;fill-opacity:1;fill-rule:nonzero;stroke:none"
           id="text973">
          <tspan
             x="0 7.1547842 10.711008"
             y="0"
             sodipodi:role="line"
             id="tspan971">1.4</tspan>
        </text>
      </g>
    </g>
    <g
       id="g975"
       transform="matrix(0.35277777,0,0,-0.35277777,-32.354762,254.51548)">
      <g
         id="g977"
         clip-path="url(#clipPath981)">
        <text
           transform="matrix(1,0,0,-1,284.18,171.72)"
           style="font-variant:normal;font-weight:normal;font-size:14.11200047px;font-family:Calibri;-inkscape-font-specification:Calibri;writing-mode:lr-tb;fill:#595959;fill-opacity:1;fill-rule:nonzero;stroke:none"
           id="text985">
          <tspan
             x="0 7.1547842 10.711008"
             y="0"
             sodipodi:role="line"
             id="tspan983">1.6</tspan>
        </text>
      </g>
    </g>
    <g
       id="g987"
       transform="matrix(0.35277777,0,0,-0.35277777,-32.354762,254.51548)">
      <g
         id="g989"
         clip-path="url(#clipPath993)">
        <text
           transform="matrix(1,0,0,-1,345.22,171.72)"
           style="font-variant:normal;font-weight:normal;font-size:14.11200047px;font-family:Calibri;-inkscape-font-specification:Calibri;writing-mode:lr-tb;fill:#595959;fill-opacity:1;fill-rule:nonzero;stroke:none"
           id="text997">
          <tspan
             x="0 7.1547842 10.711008"
             y="0"
             sodipodi:role="line"
             id="tspan995">1.8</tspan>
        </text>
      </g>
    </g>
    <g
       id="g999"
       transform="matrix(0.35277777,0,0,-0.35277777,-32.354762,254.51548)">
      <g
         id="g1001"
         clip-path="url(#clipPath1005)">
        <text
           transform="matrix(1,0,0,-1,411.6,171.72)"
           style="font-variant:normal;font-weight:normal;font-size:14.11200047px;font-family:Calibri;-inkscape-font-specification:Calibri;writing-mode:lr-tb;fill:#595959;fill-opacity:1;fill-rule:nonzero;stroke:none"
           id="text1009">
          <tspan
             x="0"
             y="0"
             id="tspan1007">2</tspan>
        </text>
      </g>
    </g>
    <g
       id="g1011"
       transform="matrix(0.35277777,0,0,-0.35277777,-32.354762,254.51548)">
      <g
         id="g1013"
         clip-path="url(#clipPath1017)">
        <text
           transform="matrix(1,0,0,-1,467.28,171.72)"
           style="font-variant:normal;font-weight:normal;font-size:14.11200047px;font-family:Calibri;-inkscape-font-specification:Calibri;writing-mode:lr-tb;fill:#595959;fill-opacity:1;fill-rule:nonzero;stroke:none"
           id="text1021">
          <tspan
             x="0 7.1547842 10.711008"
             y="0"
             sodipodi:role="line"
             id="tspan1019">2.2</tspan>
        </text>
      </g>
    </g>
    <g
       id="g1023"
       transform="matrix(0.35277777,0,0,-0.35277777,-32.354762,254.51548)">
      <g
         id="g1025"
         clip-path="url(#clipPath1029)">
        <text
           transform="matrix(1,0,0,-1,528.31,171.72)"
           style="font-variant:normal;font-weight:normal;font-size:14.11200047px;font-family:Calibri;-inkscape-font-specification:Calibri;writing-mode:lr-tb;fill:#595959;fill-opacity:1;fill-rule:nonzero;stroke:none"
           id="text1033">
          <tspan
             x="0 7.1547842 10.711008"
             y="0"
             sodipodi:role="line"
             id="tspan1031">2.4</tspan>
        </text>
      </g>
    </g>
    <g
       id="g1035"
       transform="matrix(0.35277777,0,0,-0.35277777,-32.354762,254.51548)">
      <g
         id="g1037"
         clip-path="url(#clipPath1041)">
        <text
           transform="matrix(1,0,0,-1,589.34,171.72)"
           style="font-variant:normal;font-weight:normal;font-size:14.11200047px;font-family:Calibri;-inkscape-font-specification:Calibri;writing-mode:lr-tb;fill:#595959;fill-opacity:1;fill-rule:nonzero;stroke:none"
           id="text1045">
          <tspan
             x="0 7.1547842 10.711008"
             y="0"
             sodipodi:role="line"
             id="tspan1043">2.6</tspan>
        </text>
      </g>
    </g>
    <g
       id="g1047"
       transform="matrix(0.35277777,0,0,-0.35277777,-32.354762,254.51548)">
      <g
         id="g1049"
         clip-path="url(#clipPath1053)">
        <text
           transform="matrix(1,0,0,-1,650.38,171.72)"
           style="font-variant:normal;font-weight:normal;font-size:14.11200047px;font-family:Calibri;-inkscape-font-specification:Calibri;writing-mode:lr-tb;fill:#595959;fill-opacity:1;fill-rule:nonzero;stroke:none"
           id="text1057">
          <tspan
             x="0 7.1547842 10.711008"
             y="0"
             sodipodi:role="line"
             id="tspan1055">2.8</tspan>
        </text>
      </g>
    </g>
    <g
       id="g1059"
       transform="matrix(0.35277777,0,0,-0.35277777,-32.354762,254.51548)">
      <g
         id="g1061"
         clip-path="url(#clipPath1065)">
        <text
           transform="matrix(1,0,0,-1,716.76,171.72)"
           style="font-variant:normal;font-weight:normal;font-size:14.11200047px;font-family:Calibri;-inkscape-font-specification:Calibri;writing-mode:lr-tb;fill:#595959;fill-opacity:1;fill-rule:nonzero;stroke:none"
           id="text1069">
          <tspan
             x="0"
             y="0"
             id="tspan1067">3</tspan>
        </text>
      </g>
    </g>
    <g
       id="g1071"
       transform="matrix(0.35277777,0,0,-0.35277777,-32.354762,254.51548)">
      <g
         id="g1073"
         clip-path="url(#clipPath1077)">
        <text
           transform="matrix(1,0,0,-1,250.01,492.96)"
           style="font-variant:normal;font-weight:normal;font-size:22.03199959px;font-family:Calibri;-inkscape-font-specification:Calibri;writing-mode:lr-tb;fill:#595959;fill-opacity:1;fill-rule:nonzero;stroke:none"
           id="text1081">
          <tspan
             x="0 13.54968 18.617041 27.121391 34.502113 42.19128 47.25864 58.759342 70.238014 77.618736 82.686096 94.296959 105.86376 110.51251 122.12337 128.93126 133.82237 143.93506 155.50186 166.05519 177.46776 188.94643 200.5573 212.1241 222.0385 233.01044 244.26878 251.64951 258.96414 270.57498 281.92148"
             y="0"
             sodipodi:role="line"
             id="tspan1079">Distribution of Shannon entropy</tspan>
        </text>
      </g>
    </g>
    <path
       d="M 75.609347,216.07681 H 86.227958"
       style="fill:none;stroke:#4472c4;stroke-width:0.82962751;stroke-linecap:round;stroke-linejoin:round;stroke-miterlimit:10;stroke-dasharray:none;stroke-opacity:1"
       id="path1083"
       inkscape:connector-curvature="0" />
    <g
       id="g1085"
       transform="matrix(0.35277777,0,0,-0.35277777,-32.354762,254.51548)">
      <g
         id="g1087"
         clip-path="url(#clipPath1091)">
        <text
           transform="matrix(1,0,0,-1,339.36,104.9)"
           style="font-variant:normal;font-weight:normal;font-size:14.11200047px;font-family:Calibri;-inkscape-font-specification:Calibri;writing-mode:lr-tb;fill:#595959;fill-opacity:1;fill-rule:nonzero;stroke:none"
           id="text1095">
          <tspan
             x="0 7.5216961 15.057504 22.395744 27.842976 34.983646 40.811905 48.333599 53.061119 56.23632 62.614944"
             y="0"
             sodipodi:role="line"
             id="tspan1093">Consecutive</tspan>
        </text>
      </g>
    </g>
    <path
       d="m 117.64282,216.07681 h 10.61861"
       style="fill:none;stroke:#ed7d31;stroke-width:0.82962751;stroke-linecap:round;stroke-linejoin:round;stroke-miterlimit:10;stroke-dasharray:none;stroke-opacity:1"
       id="path1097"
       inkscape:connector-curvature="0" />
    <text
       id="text2515"
       y="209.49509"
       x="135.30125"
       style="font-style:normal;font-variant:normal;font-weight:normal;font-stretch:normal;font-size:4.38940954px;line-height:1.25;font-family:'Times New Roman';-inkscape-font-specification:'Times New Roman, ';letter-spacing:0px;word-spacing:0px;fill:#565656;fill-opacity:1;stroke:none;stroke-width:0.10973524"
       xml:space="preserve"
       transform="scale(0.96309247,1.0383219)"><tspan
         style="font-style:normal;font-variant:normal;font-weight:normal;font-stretch:normal;font-family:Calibri;-inkscape-font-specification:Calibri;fill:#565656;fill-opacity:1;stroke-width:0.10973524"
         y="209.49509"
         x="135.30125"
         id="tspan2513"
         sodipodi:role="line">Random</tspan></text>
    <g
       id="g1111"
       transform="matrix(0.35277777,0,0,-0.35277777,-32.354762,254.51548)">
      <g
         id="g1113"
         clip-path="url(#clipPath1117)">
        <path
           d="m 50.971,86.328 h 690.07 v 439.29 H 50.971 Z"
           style="fill:none;stroke:#d9d9d9;stroke-width:1.17579997;stroke-linecap:butt;stroke-linejoin:round;stroke-miterlimit:10;stroke-dasharray:none;stroke-opacity:1"
           id="path1119"
           inkscape:connector-curvature="0" />
      </g>
    </g>
    <g
       transform="matrix(0.35277777,0,0,-0.35277777,-31.40163,116.33313)"
       inkscape:label="Book1"
       id="g1520">
      <path
         inkscape:connector-curvature="0"
         id="path1522"
         style="fill:#ffffff;fill-opacity:1;fill-rule:evenodd;stroke:none"
         d="M 50.94,134.29 H 741.23 V 477.67 H 50.94 Z" />
      <path
         inkscape:connector-curvature="0"
         id="path1524"
         style="fill:none;stroke:#d9d9d9;stroke-width:0.95007998;stroke-linecap:butt;stroke-linejoin:round;stroke-miterlimit:10;stroke-dasharray:none;stroke-opacity:1"
         d="M 92.856,177.2 H 720.08 M 92.856,261.67 H 720.08 M 92.856,303.93 H 720.08 M 92.856,346.19 H 720.08 M 92.856,388.45 H 720.08 M 92.856,430.68 H 720.08" />
      <path
         inkscape:connector-curvature="0"
         id="path1526"
         style="fill:none;stroke:#d9d9d9;stroke-width:0.95007998;stroke-linecap:butt;stroke-linejoin:round;stroke-miterlimit:10;stroke-dasharray:none;stroke-opacity:1"
         d="M 182.43,430.68 V 177.2 m 89.69,253.48 V 177.2 m 89.53,253.48 V 177.2 m 89.69,253.48 V 177.2 m 89.54,253.48 V 177.2 m 89.53,253.48 V 177.2 m 89.67,253.48 V 177.2" />
      <path
         inkscape:connector-curvature="0"
         id="path1528"
         style="fill:none;stroke:#bfbfbf;stroke-width:0.95007998;stroke-linecap:butt;stroke-linejoin:round;stroke-miterlimit:10;stroke-dasharray:none;stroke-opacity:1"
         d="M 92.856,177.2 V 430.68" />
      <path
         inkscape:connector-curvature="0"
         id="path1530"
         style="fill:none;stroke:#bfbfbf;stroke-width:0.95007998;stroke-linecap:butt;stroke-linejoin:round;stroke-miterlimit:10;stroke-dasharray:none;stroke-opacity:1"
         d="M 92.856,219.45 H 720.08" />
      <path
         inkscape:connector-curvature="0"
         id="path1532"
         style="fill:none;stroke:#4472c4;stroke-width:1.90020001;stroke-linecap:round;stroke-linejoin:round;stroke-miterlimit:10;stroke-dasharray:none;stroke-opacity:1"
         d="m 182.46,219.45 c 7.47,0.14 14.93,0.16 22.4,0.42 7.47,0.25 14.93,0.69 22.4,1.1 7.47,0.4 14.93,0.04 22.4,1.35 7.47,1.31 14.94,3.52 22.4,6.5 7.47,2.99 14.94,6.5 22.4,11.41 7.47,4.92 14.94,9.24 22.4,18.08 7.47,8.85 14.94,24 22.4,34.98 7.47,10.99 14.94,22.9 22.41,30.93 7.46,8.02 14.93,12.12 22.4,17.23 7.46,5.12 14.93,16.04 22.4,13.44 7.46,-2.61 14.93,-20.76 22.4,-29.07 7.47,-8.31 14.93,-12.14 22.4,-20.78 7.47,-8.65 14.93,-22.62 22.4,-31.1 7.47,-8.47 14.93,-14.8 22.4,-19.77 7.47,-4.97 14.93,-6.64 22.4,-10.05 7.47,-3.41 14.94,-7.75 22.4,-10.4 7.47,-2.64 14.94,-3.74 22.4,-5.49 7.47,-1.74 14.94,-3.79 22.4,-4.98 7.47,-1.2 14.94,-1.65 22.4,-2.2 7.47,-0.55 14.94,-0.86 22.41,-1.1 7.46,-0.24 14.93,-0.22 22.4,-0.34" />
      <path
         inkscape:connector-curvature="0"
         id="path1534"
         style="fill:none;stroke:#ed7d31;stroke-width:1.90020001;stroke-linecap:round;stroke-linejoin:round;stroke-miterlimit:10;stroke-dasharray:none;stroke-opacity:1"
         d="m 182.46,219.45 c 7.47,0 14.93,0 22.4,0 7.47,0 14.93,-0.02 22.4,0 7.47,0.01 14.93,0.04 22.4,0.08 7.47,0.04 14.94,-0.14 22.4,0.17 7.47,0.31 14.94,0.41 22.4,1.69 7.47,1.28 14.94,2.38 22.4,6 7.47,3.62 14.94,7.77 22.4,15.71 7.47,7.95 14.94,19.3 22.41,31.94 7.46,12.65 14.93,29.38 22.4,43.94 7.46,14.56 14.93,33.02 22.4,43.43 7.46,10.41 14.93,19.07 22.4,19.01 7.47,-0.06 14.93,-9.56 22.4,-19.35 7.47,-9.79 14.93,-25.45 22.4,-39.37 7.47,-13.93 14.93,-31.49 22.4,-44.19 7.47,-12.71 14.93,-24.34 22.4,-32.03 7.47,-7.69 14.94,-10.35 22.4,-14.11 7.47,-3.76 14.94,-6.49 22.4,-8.45 7.47,-1.95 14.94,-2.59 22.4,-3.29 7.47,-0.71 14.94,-0.76 22.4,-0.93 7.47,-0.17 14.94,-0.04 22.41,-0.09 7.46,-0.04 14.93,-0.11 22.4,-0.16" />
      <g
         id="g1536">
        <g
           clip-path="url(#clipPath1542)"
           id="g1538">
          <text
             id="text1546"
             style="font-variant:normal;font-weight:normal;font-size:11.39999962px;font-family:Calibri;-inkscape-font-specification:Calibri;writing-mode:lr-tb;fill:#595959;fill-opacity:1;fill-rule:nonzero;stroke:none"
             transform="matrix(1,0,0,-1,61.464,173.9)">
            <tspan
               id="tspan1544"
               sodipodi:role="line"
               y="0"
               x="0 3.4884 9.2681999 15.048">-500</tspan>
          </text>
        </g>
      </g>
      <g
         id="g1548">
        <g
           clip-path="url(#clipPath1554)"
           id="g1550">
          <text
             id="text1558"
             style="font-variant:normal;font-weight:normal;font-size:11.39999962px;font-family:Calibri;-inkscape-font-specification:Calibri;writing-mode:lr-tb;fill:#595959;fill-opacity:1;fill-rule:nonzero;stroke:none"
             transform="matrix(1,0,0,-1,76.512,216.17)">
            <tspan
               id="tspan1556"
               y="0"
               x="0">0</tspan>
          </text>
        </g>
      </g>
      <g
         id="g1560">
        <g
           clip-path="url(#clipPath1566)"
           id="g1562">
          <text
             id="text1570"
             style="font-variant:normal;font-weight:normal;font-size:11.39999962px;font-family:Calibri;-inkscape-font-specification:Calibri;writing-mode:lr-tb;fill:#595959;fill-opacity:1;fill-rule:nonzero;stroke:none"
             transform="matrix(1,0,0,-1,64.968,258.41)">
            <tspan
               id="tspan1568"
               sodipodi:role="line"
               y="0"
               x="0 5.7600002 11.52">500</tspan>
          </text>
        </g>
      </g>
      <g
         id="g1572">
        <g
           clip-path="url(#clipPath1578)"
           id="g1574">
          <text
             id="text1582"
             style="font-variant:normal;font-weight:normal;font-size:11.39999962px;font-family:Calibri;-inkscape-font-specification:Calibri;writing-mode:lr-tb;fill:#595959;fill-opacity:1;fill-rule:nonzero;stroke:none"
             transform="matrix(1,0,0,-1,59.184,300.67)">
            <tspan
               id="tspan1580"
               sodipodi:role="line"
               y="0"
               x="0 5.7839999 11.568 17.351999">1000</tspan>
          </text>
        </g>
      </g>
      <g
         id="g1584">
        <g
           clip-path="url(#clipPath1590)"
           id="g1586">
          <text
             id="text1594"
             style="font-variant:normal;font-weight:normal;font-size:11.39999962px;font-family:Calibri;-inkscape-font-specification:Calibri;writing-mode:lr-tb;fill:#595959;fill-opacity:1;fill-rule:nonzero;stroke:none"
             transform="matrix(1,0,0,-1,59.184,342.94)">
            <tspan
               id="tspan1592"
               sodipodi:role="line"
               y="0"
               x="0 5.7839999 11.568 17.351999">1500</tspan>
          </text>
        </g>
      </g>
      <g
         id="g1596">
        <g
           clip-path="url(#clipPath1602)"
           id="g1598">
          <text
             id="text1606"
             style="font-variant:normal;font-weight:normal;font-size:11.39999962px;font-family:Calibri;-inkscape-font-specification:Calibri;writing-mode:lr-tb;fill:#595959;fill-opacity:1;fill-rule:nonzero;stroke:none"
             transform="matrix(1,0,0,-1,59.184,385.18)">
            <tspan
               id="tspan1604"
               sodipodi:role="line"
               y="0"
               x="0 5.7839999 11.568 17.351999">2000</tspan>
          </text>
        </g>
      </g>
      <g
         id="g1608">
        <g
           clip-path="url(#clipPath1614)"
           id="g1610">
          <text
             id="text1618"
             style="font-variant:normal;font-weight:normal;font-size:11.39999962px;font-family:Calibri;-inkscape-font-specification:Calibri;writing-mode:lr-tb;fill:#595959;fill-opacity:1;fill-rule:nonzero;stroke:none"
             transform="matrix(1,0,0,-1,59.184,427.44)">
            <tspan
               id="tspan1616"
               sodipodi:role="line"
               y="0"
               x="0 5.7839999 11.568 17.351999">2500</tspan>
          </text>
        </g>
      </g>
      <g
         id="g1620">
        <g
           clip-path="url(#clipPath1626)"
           id="g1622">
          <text
             id="text1630"
             style="font-variant:normal;font-weight:normal;font-size:11.39999962px;font-family:Calibri;-inkscape-font-specification:Calibri;writing-mode:lr-tb;fill:#595959;fill-opacity:1;fill-rule:nonzero;stroke:none"
             transform="matrix(1,0,0,-1,89.976,201.34)">
            <tspan
               id="tspan1628"
               y="0"
               x="0">1</tspan>
          </text>
        </g>
      </g>
      <g
         id="g1632">
        <g
           clip-path="url(#clipPath1638)"
           id="g1634">
          <text
             id="text1642"
             style="font-variant:normal;font-weight:normal;font-size:11.39999962px;font-family:Calibri;-inkscape-font-specification:Calibri;writing-mode:lr-tb;fill:#595959;fill-opacity:1;fill-rule:nonzero;stroke:none"
             transform="matrix(1,0,0,-1,175.27,201.34)">
            <tspan
               id="tspan1640"
               sodipodi:role="line"
               y="0"
               x="0 5.7839999 8.6610003">1.2</tspan>
          </text>
        </g>
      </g>
      <g
         id="g1644">
        <g
           clip-path="url(#clipPath1650)"
           id="g1646">
          <text
             id="text1654"
             style="font-variant:normal;font-weight:normal;font-size:11.39999962px;font-family:Calibri;-inkscape-font-specification:Calibri;writing-mode:lr-tb;fill:#595959;fill-opacity:1;fill-rule:nonzero;stroke:none"
             transform="matrix(1,0,0,-1,264.89,201.34)">
            <tspan
               id="tspan1652"
               sodipodi:role="line"
               y="0"
               x="0 5.7839999 8.6610003">1.4</tspan>
          </text>
        </g>
      </g>
      <g
         id="g1656">
        <g
           clip-path="url(#clipPath1662)"
           id="g1658">
          <text
             id="text1666"
             style="font-variant:normal;font-weight:normal;font-size:11.39999962px;font-family:Calibri;-inkscape-font-specification:Calibri;writing-mode:lr-tb;fill:#595959;fill-opacity:1;fill-rule:nonzero;stroke:none"
             transform="matrix(1,0,0,-1,354.5,201.34)">
            <tspan
               id="tspan1664"
               sodipodi:role="line"
               y="0"
               x="0 5.7839999 8.6610003">1.6</tspan>
          </text>
        </g>
      </g>
      <g
         id="g1668">
        <g
           clip-path="url(#clipPath1674)"
           id="g1670">
          <text
             id="text1678"
             style="font-variant:normal;font-weight:normal;font-size:11.39999962px;font-family:Calibri;-inkscape-font-specification:Calibri;writing-mode:lr-tb;fill:#595959;fill-opacity:1;fill-rule:nonzero;stroke:none"
             transform="matrix(1,0,0,-1,444.12,201.34)">
            <tspan
               id="tspan1676"
               sodipodi:role="line"
               y="0"
               x="0 5.7839999 8.6610003">1.8</tspan>
          </text>
        </g>
      </g>
      <g
         id="g1680">
        <g
           clip-path="url(#clipPath1686)"
           id="g1682">
          <text
             id="text1690"
             style="font-variant:normal;font-weight:normal;font-size:11.39999962px;font-family:Calibri;-inkscape-font-specification:Calibri;writing-mode:lr-tb;fill:#595959;fill-opacity:1;fill-rule:nonzero;stroke:none"
             transform="matrix(1,0,0,-1,538.06,201.34)">
            <tspan
               id="tspan1688"
               y="0"
               x="0">2</tspan>
          </text>
        </g>
      </g>
      <g
         id="g1692">
        <g
           clip-path="url(#clipPath1698)"
           id="g1694">
          <text
             id="text1702"
             style="font-variant:normal;font-weight:normal;font-size:11.39999962px;font-family:Calibri;-inkscape-font-specification:Calibri;writing-mode:lr-tb;fill:#595959;fill-opacity:1;fill-rule:nonzero;stroke:none"
             transform="matrix(1,0,0,-1,623.35,201.34)">
            <tspan
               id="tspan1700"
               sodipodi:role="line"
               y="0"
               x="0 5.7839999 8.6610003">2.2</tspan>
          </text>
        </g>
      </g>
      <g
         id="g1704">
        <g
           clip-path="url(#clipPath1710)"
           id="g1706">
          <text
             id="text1714"
             style="font-variant:normal;font-weight:normal;font-size:11.39999962px;font-family:Calibri;-inkscape-font-specification:Calibri;writing-mode:lr-tb;fill:#595959;fill-opacity:1;fill-rule:nonzero;stroke:none"
             transform="matrix(1,0,0,-1,712.97,201.34)">
            <tspan
               id="tspan1712"
               sodipodi:role="line"
               y="0"
               x="0 5.7839999 8.6610003">2.4</tspan>
          </text>
        </g>
      </g>
      <g
         id="g1716">
        <g
           clip-path="url(#clipPath1722)"
           id="g1718">
          <text
             id="text1726"
             style="font-variant:normal;font-weight:normal;font-size:17.7840004px;font-family:Calibri;-inkscape-font-specification:Calibri;writing-mode:lr-tb;fill:#595959;fill-opacity:1;fill-rule:nonzero;stroke:none"
             transform="matrix(1,0,0,-1,221.09,451.25)">
            <tspan
               id="tspan1724"
               sodipodi:role="line"
               y="0"
               x="0 10.93716 15.02748 21.892103 27.849745 34.056358 38.146679 47.429928 56.695393 62.65303 66.743355 76.115517 85.452118 89.222328 98.630066 104.05418 108.07336 117.32104 121.41137 128.25821 134.03801 143.44574 152.71121 161.56764 165.32007 174.58553 180.5076 189.91533 195.33946 199.46535 203.55566 212.41209 216.16452 224.84311 234.09079 241.52451 245.61482 249.70514 259.04175 267.80927 276.32779 285.59326 289.82584 299.09131 303.18164 310.02847 315.80826 324.32681 333.59229 341.02597">Distribution of histone profile Euclidean distance</tspan>
          </text>
        </g>
      </g>
      <path
         inkscape:connector-curvature="0"
         id="path1728"
         style="fill:none;stroke:#4472c4;stroke-width:1.90020001;stroke-linecap:round;stroke-linejoin:round;stroke-miterlimit:10;stroke-dasharray:none;stroke-opacity:1"
         d="m 329.62,152.58 h 24.32" />
      <g
         id="g1730">
        <g
           clip-path="url(#clipPath1736)"
           id="g1732">
          <text
             id="text1740"
             style="font-variant:normal;font-weight:normal;font-size:11.39999962px;font-family:Calibri;-inkscape-font-specification:Calibri;writing-mode:lr-tb;fill:#595959;fill-opacity:1;fill-rule:nonzero;stroke:none"
             transform="matrix(1,0,0,-1,356.57,149.28)">
            <tspan
               id="tspan1738"
               sodipodi:role="line"
               y="0"
               x="0 5.1641998 11.229 17.157 22.902599 26.8356">Sphere</tspan>
          </text>
        </g>
      </g>
      <path
         inkscape:connector-curvature="0"
         id="path1742"
         style="fill:none;stroke:#ed7d31;stroke-width:1.90020001;stroke-linecap:round;stroke-linejoin:round;stroke-miterlimit:10;stroke-dasharray:none;stroke-opacity:1"
         d="M 401.38,152.58 H 425.7" />
      <g
         id="g1744">
        <g
           clip-path="url(#clipPath1750)"
           id="g1746">
          <text
             id="text1754"
             style="font-variant:normal;font-weight:normal;font-size:11.39999962px;font-family:Calibri;-inkscape-font-specification:Calibri;writing-mode:lr-tb;fill:#595959;fill-opacity:1;fill-rule:nonzero;stroke:none"
             transform="matrix(1,0,0,-1,428.33,149.28)">
            <tspan
               id="tspan1752"
               sodipodi:role="line"
               y="0"
               x="0 6.2244 11.685 17.624399 23.552401 29.617201">Random</tspan>
          </text>
        </g>
      </g>
      <g
         id="g1756">
        <g
           clip-path="url(#clipPath1762)"
           id="g1758">
          <path
             inkscape:connector-curvature="0"
             id="path1764"
             style="fill:none;stroke:#d9d9d9;stroke-width:0.95007998;stroke-linecap:butt;stroke-linejoin:round;stroke-miterlimit:10;stroke-dasharray:none;stroke-opacity:1"
             d="M 50.94,134.29 H 741.23 V 477.67 H 50.94 Z" />
        </g>
      </g>
    </g>
  </g>
</svg>
