<?xml version="1.0" encoding="UTF-8" standalone="no"?>
<!-- Created with Inkscape (http://www.inkscape.org/) -->

<svg
   xmlns:dc="http://purl.org/dc/elements/1.1/"
   xmlns:cc="http://creativecommons.org/ns#"
   xmlns:rdf="http://www.w3.org/1999/02/22-rdf-syntax-ns#"
   xmlns:svg="http://www.w3.org/2000/svg"
   xmlns="http://www.w3.org/2000/svg"
   xmlns:sodipodi="http://sodipodi.sourceforge.net/DTD/sodipodi-0.dtd"
   xmlns:inkscape="http://www.inkscape.org/namespaces/inkscape"
   width="243.81708mm"
   height="121.43494mm"
   viewBox="0 0 243.81708 121.43494"
   version="1.1"
   id="svg967"
   inkscape:version="0.92.4 (5da689c313, 2019-01-14)"
   sodipodi:docname="HistoneEuclideanDistanceDistribution.svg">
  <defs
     id="defs961">
    <clipPath
       id="clipPath1542"
       clipPathUnits="userSpaceOnUse">
      <path
         style="clip-rule:evenodd"
         inkscape:connector-curvature="0"
         id="path1540"
         d="M 51,134.28 H 741.24 V 477.6 H 51 Z" />
    </clipPath>
    <clipPath
       id="clipPath1554"
       clipPathUnits="userSpaceOnUse">
      <path
         style="clip-rule:evenodd"
         inkscape:connector-curvature="0"
         id="path1552"
         d="M 51,134.28 H 741.24 V 477.6 H 51 Z" />
    </clipPath>
    <clipPath
       id="clipPath1566"
       clipPathUnits="userSpaceOnUse">
      <path
         style="clip-rule:evenodd"
         inkscape:connector-curvature="0"
         id="path1564"
         d="M 51,134.28 H 741.24 V 477.6 H 51 Z" />
    </clipPath>
    <clipPath
       id="clipPath1578"
       clipPathUnits="userSpaceOnUse">
      <path
         style="clip-rule:evenodd"
         inkscape:connector-curvature="0"
         id="path1576"
         d="M 51,134.28 H 741.24 V 477.6 H 51 Z" />
    </clipPath>
    <clipPath
       id="clipPath1590"
       clipPathUnits="userSpaceOnUse">
      <path
         style="clip-rule:evenodd"
         inkscape:connector-curvature="0"
         id="path1588"
         d="M 51,134.28 H 741.24 V 477.6 H 51 Z" />
    </clipPath>
    <clipPath
       id="clipPath1602"
       clipPathUnits="userSpaceOnUse">
      <path
         style="clip-rule:evenodd"
         inkscape:connector-curvature="0"
         id="path1600"
         d="M 51,134.28 H 741.24 V 477.6 H 51 Z" />
    </clipPath>
    <clipPath
       id="clipPath1614"
       clipPathUnits="userSpaceOnUse">
      <path
         style="clip-rule:evenodd"
         inkscape:connector-curvature="0"
         id="path1612"
         d="M 51,134.28 H 741.24 V 477.6 H 51 Z" />
    </clipPath>
    <clipPath
       id="clipPath1626"
       clipPathUnits="userSpaceOnUse">
      <path
         style="clip-rule:evenodd"
         inkscape:connector-curvature="0"
         id="path1624"
         d="M 51,134.28 H 741.24 V 477.6 H 51 Z" />
    </clipPath>
    <clipPath
       id="clipPath1638"
       clipPathUnits="userSpaceOnUse">
      <path
         style="clip-rule:evenodd"
         inkscape:connector-curvature="0"
         id="path1636"
         d="M 51,134.28 H 741.24 V 477.6 H 51 Z" />
    </clipPath>
    <clipPath
       id="clipPath1650"
       clipPathUnits="userSpaceOnUse">
      <path
         style="clip-rule:evenodd"
         inkscape:connector-curvature="0"
         id="path1648"
         d="M 51,134.28 H 741.24 V 477.6 H 51 Z" />
    </clipPath>
    <clipPath
       id="clipPath1662"
       clipPathUnits="userSpaceOnUse">
      <path
         style="clip-rule:evenodd"
         inkscape:connector-curvature="0"
         id="path1660"
         d="M 51,134.28 H 741.24 V 477.6 H 51 Z" />
    </clipPath>
    <clipPath
       id="clipPath1674"
       clipPathUnits="userSpaceOnUse">
      <path
         style="clip-rule:evenodd"
         inkscape:connector-curvature="0"
         id="path1672"
         d="M 51,134.28 H 741.24 V 477.6 H 51 Z" />
    </clipPath>
    <clipPath
       id="clipPath1686"
       clipPathUnits="userSpaceOnUse">
      <path
         style="clip-rule:evenodd"
         inkscape:connector-curvature="0"
         id="path1684"
         d="M 51,134.28 H 741.24 V 477.6 H 51 Z" />
    </clipPath>
    <clipPath
       id="clipPath1698"
       clipPathUnits="userSpaceOnUse">
      <path
         style="clip-rule:evenodd"
         inkscape:connector-curvature="0"
         id="path1696"
         d="M 51,134.28 H 741.24 V 477.6 H 51 Z" />
    </clipPath>
    <clipPath
       id="clipPath1710"
       clipPathUnits="userSpaceOnUse">
      <path
         style="clip-rule:evenodd"
         inkscape:connector-curvature="0"
         id="path1708"
         d="M 51,134.28 H 741.24 V 477.6 H 51 Z" />
    </clipPath>
    <clipPath
       id="clipPath1722"
       clipPathUnits="userSpaceOnUse">
      <path
         style="clip-rule:evenodd"
         inkscape:connector-curvature="0"
         id="path1720"
         d="M 51,134.28 H 741.24 V 477.6 H 51 Z" />
    </clipPath>
    <clipPath
       id="clipPath1736"
       clipPathUnits="userSpaceOnUse">
      <path
         style="clip-rule:evenodd"
         inkscape:connector-curvature="0"
         id="path1734"
         d="M 51,134.28 H 741.24 V 477.6 H 51 Z" />
    </clipPath>
    <clipPath
       id="clipPath1750"
       clipPathUnits="userSpaceOnUse">
      <path
         style="clip-rule:evenodd"
         inkscape:connector-curvature="0"
         id="path1748"
         d="M 51,134.28 H 741.24 V 477.6 H 51 Z" />
    </clipPath>
    <clipPath
       id="clipPath1762"
       clipPathUnits="userSpaceOnUse">
      <path
         style="clip-rule:evenodd"
         inkscape:connector-curvature="0"
         id="path1760"
         d="M 50.4,133.92 H 741.6 V 478.2 H 50.4 Z" />
    </clipPath>
  </defs>
  <sodipodi:namedview
     id="base"
     pagecolor="#ffffff"
     bordercolor="#666666"
     borderopacity="1.0"
     inkscape:pageopacity="0.0"
     inkscape:pageshadow="2"
     inkscape:zoom="0.98994949"
     inkscape:cx="354.51392"
     inkscape:cy="195.41936"
     inkscape:document-units="mm"
     inkscape:current-layer="layer1"
     showgrid="false"
     fit-margin-top="0"
     fit-margin-left="0"
     fit-margin-right="0"
     fit-margin-bottom="0"
     inkscape:window-width="1920"
     inkscape:window-height="789"
     inkscape:window-x="-8"
     inkscape:window-y="220"
     inkscape:window-maximized="1" />
  <metadata
     id="metadata964">
    <rdf:RDF>
      <cc:Work
         rdf:about="">
        <dc:format>image/svg+xml</dc:format>
        <dc:type
           rdf:resource="http://purl.org/dc/dcmitype/StillImage" />
        <dc:title></dc:title>
      </cc:Work>
    </rdf:RDF>
  </metadata>
  <g
     inkscape:label="Layer 1"
     inkscape:groupmode="layer"
     id="layer1"
     transform="translate(13.792963,-72.591979)">
    <g
       transform="matrix(0.35277777,0,0,-0.35277777,-31.595879,241.27092)"
       inkscape:label="Book1"
       id="g1520">
      <path
         inkscape:connector-curvature="0"
         id="path1522"
         style="fill:#ffffff;fill-opacity:1;fill-rule:evenodd;stroke:none"
         d="M 50.94,134.29 H 741.23 V 477.67 H 50.94 Z" />
      <path
         inkscape:connector-curvature="0"
         id="path1524"
         style="fill:none;stroke:#d9d9d9;stroke-width:0.95007998;stroke-linecap:butt;stroke-linejoin:round;stroke-miterlimit:10;stroke-dasharray:none;stroke-opacity:1"
         d="M 92.856,177.2 H 720.08 M 92.856,261.67 H 720.08 M 92.856,303.93 H 720.08 M 92.856,346.19 H 720.08 M 92.856,388.45 H 720.08 M 92.856,430.68 H 720.08" />
      <path
         inkscape:connector-curvature="0"
         id="path1526"
         style="fill:none;stroke:#d9d9d9;stroke-width:0.95007998;stroke-linecap:butt;stroke-linejoin:round;stroke-miterlimit:10;stroke-dasharray:none;stroke-opacity:1"
         d="M 182.43,430.68 V 177.2 m 89.69,253.48 V 177.2 m 89.53,253.48 V 177.2 m 89.69,253.48 V 177.2 m 89.54,253.48 V 177.2 m 89.53,253.48 V 177.2 m 89.67,253.48 V 177.2" />
      <path
         inkscape:connector-curvature="0"
         id="path1528"
         style="fill:none;stroke:#bfbfbf;stroke-width:0.95007998;stroke-linecap:butt;stroke-linejoin:round;stroke-miterlimit:10;stroke-dasharray:none;stroke-opacity:1"
         d="M 92.856,177.2 V 430.68" />
      <path
         inkscape:connector-curvature="0"
         id="path1530"
         style="fill:none;stroke:#bfbfbf;stroke-width:0.95007998;stroke-linecap:butt;stroke-linejoin:round;stroke-miterlimit:10;stroke-dasharray:none;stroke-opacity:1"
         d="M 92.856,219.45 H 720.08" />
      <path
         inkscape:connector-curvature="0"
         id="path1532"
         style="fill:none;stroke:#4472c4;stroke-width:1.90020001;stroke-linecap:round;stroke-linejoin:round;stroke-miterlimit:10;stroke-dasharray:none;stroke-opacity:1"
         d="m 182.46,219.45 c 7.47,0.14 14.93,0.16 22.4,0.42 7.47,0.25 14.93,0.69 22.4,1.1 7.47,0.4 14.93,0.04 22.4,1.35 7.47,1.31 14.94,3.52 22.4,6.5 7.47,2.99 14.94,6.5 22.4,11.41 7.47,4.92 14.94,9.24 22.4,18.08 7.47,8.85 14.94,24 22.4,34.98 7.47,10.99 14.94,22.9 22.41,30.93 7.46,8.02 14.93,12.12 22.4,17.23 7.46,5.12 14.93,16.04 22.4,13.44 7.46,-2.61 14.93,-20.76 22.4,-29.07 7.47,-8.31 14.93,-12.14 22.4,-20.78 7.47,-8.65 14.93,-22.62 22.4,-31.1 7.47,-8.47 14.93,-14.8 22.4,-19.77 7.47,-4.97 14.93,-6.64 22.4,-10.05 7.47,-3.41 14.94,-7.75 22.4,-10.4 7.47,-2.64 14.94,-3.74 22.4,-5.49 7.47,-1.74 14.94,-3.79 22.4,-4.98 7.47,-1.2 14.94,-1.65 22.4,-2.2 7.47,-0.55 14.94,-0.86 22.41,-1.1 7.46,-0.24 14.93,-0.22 22.4,-0.34" />
      <path
         inkscape:connector-curvature="0"
         id="path1534"
         style="fill:none;stroke:#ed7d31;stroke-width:1.90020001;stroke-linecap:round;stroke-linejoin:round;stroke-miterlimit:10;stroke-dasharray:none;stroke-opacity:1"
         d="m 182.46,219.45 c 7.47,0 14.93,0 22.4,0 7.47,0 14.93,-0.02 22.4,0 7.47,0.01 14.93,0.04 22.4,0.08 7.47,0.04 14.94,-0.14 22.4,0.17 7.47,0.31 14.94,0.41 22.4,1.69 7.47,1.28 14.94,2.38 22.4,6 7.47,3.62 14.94,7.77 22.4,15.71 7.47,7.95 14.94,19.3 22.41,31.94 7.46,12.65 14.93,29.38 22.4,43.94 7.46,14.56 14.93,33.02 22.4,43.43 7.46,10.41 14.93,19.07 22.4,19.01 7.47,-0.06 14.93,-9.56 22.4,-19.35 7.47,-9.79 14.93,-25.45 22.4,-39.37 7.47,-13.93 14.93,-31.49 22.4,-44.19 7.47,-12.71 14.93,-24.34 22.4,-32.03 7.47,-7.69 14.94,-10.35 22.4,-14.11 7.47,-3.76 14.94,-6.49 22.4,-8.45 7.47,-1.95 14.94,-2.59 22.4,-3.29 7.47,-0.71 14.94,-0.76 22.4,-0.93 7.47,-0.17 14.94,-0.04 22.41,-0.09 7.46,-0.04 14.93,-0.11 22.4,-0.16" />
      <g
         id="g1536">
        <g
           clip-path="url(#clipPath1542)"
           id="g1538">
          <text
             id="text1546"
             style="font-variant:normal;font-weight:normal;font-size:11.39999962px;font-family:Calibri;-inkscape-font-specification:Calibri;writing-mode:lr-tb;fill:#595959;fill-opacity:1;fill-rule:nonzero;stroke:none"
             transform="matrix(1,0,0,-1,61.464,173.9)">
            <tspan
               id="tspan1544"
               sodipodi:role="line"
               y="0"
               x="0 3.4884 9.2681999 15.048">-500</tspan>
          </text>
        </g>
      </g>
      <g
         id="g1548">
        <g
           clip-path="url(#clipPath1554)"
           id="g1550">
          <text
             id="text1558"
             style="font-variant:normal;font-weight:normal;font-size:11.39999962px;font-family:Calibri;-inkscape-font-specification:Calibri;writing-mode:lr-tb;fill:#595959;fill-opacity:1;fill-rule:nonzero;stroke:none"
             transform="matrix(1,0,0,-1,76.512,216.17)">
            <tspan
               id="tspan1556"
               y="0"
               x="0">0</tspan>
          </text>
        </g>
      </g>
      <g
         id="g1560">
        <g
           clip-path="url(#clipPath1566)"
           id="g1562">
          <text
             id="text1570"
             style="font-variant:normal;font-weight:normal;font-size:11.39999962px;font-family:Calibri;-inkscape-font-specification:Calibri;writing-mode:lr-tb;fill:#595959;fill-opacity:1;fill-rule:nonzero;stroke:none"
             transform="matrix(1,0,0,-1,64.968,258.41)">
            <tspan
               id="tspan1568"
               sodipodi:role="line"
               y="0"
               x="0 5.7600002 11.52">500</tspan>
          </text>
        </g>
      </g>
      <g
         id="g1572">
        <g
           clip-path="url(#clipPath1578)"
           id="g1574">
          <text
             id="text1582"
             style="font-variant:normal;font-weight:normal;font-size:11.39999962px;font-family:Calibri;-inkscape-font-specification:Calibri;writing-mode:lr-tb;fill:#595959;fill-opacity:1;fill-rule:nonzero;stroke:none"
             transform="matrix(1,0,0,-1,59.184,300.67)">
            <tspan
               id="tspan1580"
               sodipodi:role="line"
               y="0"
               x="0 5.7839999 11.568 17.351999">1000</tspan>
          </text>
        </g>
      </g>
      <g
         id="g1584">
        <g
           clip-path="url(#clipPath1590)"
           id="g1586">
          <text
             id="text1594"
             style="font-variant:normal;font-weight:normal;font-size:11.39999962px;font-family:Calibri;-inkscape-font-specification:Calibri;writing-mode:lr-tb;fill:#595959;fill-opacity:1;fill-rule:nonzero;stroke:none"
             transform="matrix(1,0,0,-1,59.184,342.94)">
            <tspan
               id="tspan1592"
               sodipodi:role="line"
               y="0"
               x="0 5.7839999 11.568 17.351999">1500</tspan>
          </text>
        </g>
      </g>
      <g
         id="g1596">
        <g
           clip-path="url(#clipPath1602)"
           id="g1598">
          <text
             id="text1606"
             style="font-variant:normal;font-weight:normal;font-size:11.39999962px;font-family:Calibri;-inkscape-font-specification:Calibri;writing-mode:lr-tb;fill:#595959;fill-opacity:1;fill-rule:nonzero;stroke:none"
             transform="matrix(1,0,0,-1,59.184,385.18)">
            <tspan
               id="tspan1604"
               sodipodi:role="line"
               y="0"
               x="0 5.7839999 11.568 17.351999">2000</tspan>
          </text>
        </g>
      </g>
      <g
         id="g1608">
        <g
           clip-path="url(#clipPath1614)"
           id="g1610">
          <text
             id="text1618"
             style="font-variant:normal;font-weight:normal;font-size:11.39999962px;font-family:Calibri;-inkscape-font-specification:Calibri;writing-mode:lr-tb;fill:#595959;fill-opacity:1;fill-rule:nonzero;stroke:none"
             transform="matrix(1,0,0,-1,59.184,427.44)">
            <tspan
               id="tspan1616"
               sodipodi:role="line"
               y="0"
               x="0 5.7839999 11.568 17.351999">2500</tspan>
          </text>
        </g>
      </g>
      <g
         id="g1620">
        <g
           clip-path="url(#clipPath1626)"
           id="g1622">
          <text
             id="text1630"
             style="font-variant:normal;font-weight:normal;font-size:11.39999962px;font-family:Calibri;-inkscape-font-specification:Calibri;writing-mode:lr-tb;fill:#595959;fill-opacity:1;fill-rule:nonzero;stroke:none"
             transform="matrix(1,0,0,-1,89.976,201.34)">
            <tspan
               id="tspan1628"
               y="0"
               x="0">1</tspan>
          </text>
        </g>
      </g>
      <g
         id="g1632">
        <g
           clip-path="url(#clipPath1638)"
           id="g1634">
          <text
             id="text1642"
             style="font-variant:normal;font-weight:normal;font-size:11.39999962px;font-family:Calibri;-inkscape-font-specification:Calibri;writing-mode:lr-tb;fill:#595959;fill-opacity:1;fill-rule:nonzero;stroke:none"
             transform="matrix(1,0,0,-1,175.27,201.34)">
            <tspan
               id="tspan1640"
               sodipodi:role="line"
               y="0"
               x="0 5.7839999 8.6610003">1.2</tspan>
          </text>
        </g>
      </g>
      <g
         id="g1644">
        <g
           clip-path="url(#clipPath1650)"
           id="g1646">
          <text
             id="text1654"
             style="font-variant:normal;font-weight:normal;font-size:11.39999962px;font-family:Calibri;-inkscape-font-specification:Calibri;writing-mode:lr-tb;fill:#595959;fill-opacity:1;fill-rule:nonzero;stroke:none"
             transform="matrix(1,0,0,-1,264.89,201.34)">
            <tspan
               id="tspan1652"
               sodipodi:role="line"
               y="0"
               x="0 5.7839999 8.6610003">1.4</tspan>
          </text>
        </g>
      </g>
      <g
         id="g1656">
        <g
           clip-path="url(#clipPath1662)"
           id="g1658">
          <text
             id="text1666"
             style="font-variant:normal;font-weight:normal;font-size:11.39999962px;font-family:Calibri;-inkscape-font-specification:Calibri;writing-mode:lr-tb;fill:#595959;fill-opacity:1;fill-rule:nonzero;stroke:none"
             transform="matrix(1,0,0,-1,354.5,201.34)">
            <tspan
               id="tspan1664"
               sodipodi:role="line"
               y="0"
               x="0 5.7839999 8.6610003">1.6</tspan>
          </text>
        </g>
      </g>
      <g
         id="g1668">
        <g
           clip-path="url(#clipPath1674)"
           id="g1670">
          <text
             id="text1678"
             style="font-variant:normal;font-weight:normal;font-size:11.39999962px;font-family:Calibri;-inkscape-font-specification:Calibri;writing-mode:lr-tb;fill:#595959;fill-opacity:1;fill-rule:nonzero;stroke:none"
             transform="matrix(1,0,0,-1,444.12,201.34)">
            <tspan
               id="tspan1676"
               sodipodi:role="line"
               y="0"
               x="0 5.7839999 8.6610003">1.8</tspan>
          </text>
        </g>
      </g>
      <g
         id="g1680">
        <g
           clip-path="url(#clipPath1686)"
           id="g1682">
          <text
             id="text1690"
             style="font-variant:normal;font-weight:normal;font-size:11.39999962px;font-family:Calibri;-inkscape-font-specification:Calibri;writing-mode:lr-tb;fill:#595959;fill-opacity:1;fill-rule:nonzero;stroke:none"
             transform="matrix(1,0,0,-1,538.06,201.34)">
            <tspan
               id="tspan1688"
               y="0"
               x="0">2</tspan>
          </text>
        </g>
      </g>
      <g
         id="g1692">
        <g
           clip-path="url(#clipPath1698)"
           id="g1694">
          <text
             id="text1702"
             style="font-variant:normal;font-weight:normal;font-size:11.39999962px;font-family:Calibri;-inkscape-font-specification:Calibri;writing-mode:lr-tb;fill:#595959;fill-opacity:1;fill-rule:nonzero;stroke:none"
             transform="matrix(1,0,0,-1,623.35,201.34)">
            <tspan
               id="tspan1700"
               sodipodi:role="line"
               y="0"
               x="0 5.7839999 8.6610003">2.2</tspan>
          </text>
        </g>
      </g>
      <g
         id="g1704">
        <g
           clip-path="url(#clipPath1710)"
           id="g1706">
          <text
             id="text1714"
             style="font-variant:normal;font-weight:normal;font-size:11.39999962px;font-family:Calibri;-inkscape-font-specification:Calibri;writing-mode:lr-tb;fill:#595959;fill-opacity:1;fill-rule:nonzero;stroke:none"
             transform="matrix(1,0,0,-1,712.97,201.34)">
            <tspan
               id="tspan1712"
               sodipodi:role="line"
               y="0"
               x="0 5.7839999 8.6610003">2.4</tspan>
          </text>
        </g>
      </g>
      <g
         id="g1716">
        <g
           clip-path="url(#clipPath1722)"
           id="g1718">
          <text
             id="text1726"
             style="font-variant:normal;font-weight:normal;font-size:17.7840004px;font-family:Calibri;-inkscape-font-specification:Calibri;writing-mode:lr-tb;fill:#595959;fill-opacity:1;fill-rule:nonzero;stroke:none"
             transform="matrix(1,0,0,-1,221.09,451.25)">
            <tspan
               id="tspan1724"
               sodipodi:role="line"
               y="0"
               x="0 10.93716 15.02748 21.892103 27.849745 34.056358 38.146679 47.429928 56.695393 62.65303 66.743355 76.115517 85.452118 89.222328 98.630066 104.05418 108.07336 117.32104 121.41137 128.25821 134.03801 143.44574 152.71121 161.56764 165.32007 174.58553 180.5076 189.91533 195.33946 199.46535 203.55566 212.41209 216.16452 224.84311 234.09079 241.52451 245.61482 249.70514 259.04175 267.80927 276.32779 285.59326 289.82584 299.09131 303.18164 310.02847 315.80826 324.32681 333.59229 341.02597">Distribution of histone profile Euclidean distance</tspan>
          </text>
        </g>
      </g>
      <path
         inkscape:connector-curvature="0"
         id="path1728"
         style="fill:none;stroke:#4472c4;stroke-width:1.90020001;stroke-linecap:round;stroke-linejoin:round;stroke-miterlimit:10;stroke-dasharray:none;stroke-opacity:1"
         d="m 329.62,152.58 h 24.32" />
      <g
         id="g1730">
        <g
           clip-path="url(#clipPath1736)"
           id="g1732">
          <text
             id="text1740"
             style="font-variant:normal;font-weight:normal;font-size:11.39999962px;font-family:Calibri;-inkscape-font-specification:Calibri;writing-mode:lr-tb;fill:#595959;fill-opacity:1;fill-rule:nonzero;stroke:none"
             transform="matrix(1,0,0,-1,356.57,149.28)">
            <tspan
               id="tspan1738"
               sodipodi:role="line"
               y="0"
               x="0 5.1641998 11.229 17.157 22.902599 26.8356">Sphere</tspan>
          </text>
        </g>
      </g>
      <path
         inkscape:connector-curvature="0"
         id="path1742"
         style="fill:none;stroke:#ed7d31;stroke-width:1.90020001;stroke-linecap:round;stroke-linejoin:round;stroke-miterlimit:10;stroke-dasharray:none;stroke-opacity:1"
         d="M 401.38,152.58 H 425.7" />
      <g
         id="g1744">
        <g
           clip-path="url(#clipPath1750)"
           id="g1746">
          <text
             id="text1754"
             style="font-variant:normal;font-weight:normal;font-size:11.39999962px;font-family:Calibri;-inkscape-font-specification:Calibri;writing-mode:lr-tb;fill:#595959;fill-opacity:1;fill-rule:nonzero;stroke:none"
             transform="matrix(1,0,0,-1,428.33,149.28)">
            <tspan
               id="tspan1752"
               sodipodi:role="line"
               y="0"
               x="0 6.2244 11.685 17.624399 23.552401 29.617201">Random</tspan>
          </text>
        </g>
      </g>
      <g
         id="g1756">
        <g
           clip-path="url(#clipPath1762)"
           id="g1758">
          <path
             inkscape:connector-curvature="0"
             id="path1764"
             style="fill:none;stroke:#d9d9d9;stroke-width:0.95007998;stroke-linecap:butt;stroke-linejoin:round;stroke-miterlimit:10;stroke-dasharray:none;stroke-opacity:1"
             d="M 50.94,134.29 H 741.23 V 477.67 H 50.94 Z" />
        </g>
      </g>
    </g>
  </g>
</svg>
