<?xml version="1.0" encoding="UTF-8"?><svg xmlns="http://www.w3.org/2000/svg" xmlns:xlink="http://www.w3.org/1999/xlink" fill-opacity="1" color-rendering="auto" color-interpolation="auto" text-rendering="auto" stroke="black" stroke-linecap="square" width="960" stroke-miterlimit="10" shape-rendering="auto" stroke-opacity="1" fill="black" stroke-dasharray="none" font-weight="normal" stroke-width="1" height="803" font-family="'Dialog'" font-style="normal" stroke-linejoin="miter" font-size="12px" stroke-dashoffset="0" image-rendering="auto">
  <!--Generated by ySVG 2.5-->
  <defs id="genericDefs"/>
  <g>
    <defs id="defs1">
      <clipPath clipPathUnits="userSpaceOnUse" id="clipPath1">
        <path d="M0 0 L960 0 L960 803 L0 803 L0 0 Z"/>
      </clipPath>
      <clipPath clipPathUnits="userSpaceOnUse" id="clipPath2">
        <path d="M-15 -15 L945 -15 L945 788 L-15 788 L-15 -15 Z"/>
      </clipPath>
    </defs>
    <g fill="white" text-rendering="geometricPrecision" shape-rendering="geometricPrecision" transform="translate(15,15)" stroke="white">
      <rect x="-15" width="960" height="803" y="-15" clip-path="url(#clipPath2)" stroke="none"/>
    </g>
    <g fill="rgb(255,204,0)" text-rendering="geometricPrecision" shape-rendering="geometricPrecision" transform="matrix(1,0,0,1,15,15)" stroke="rgb(255,204,0)">
      <ellipse rx="115.5" ry="41.5" clip-path="url(#clipPath2)" cx="334.5" cy="163.8765" stroke="none"/>
    </g>
    <g text-rendering="geometricPrecision" stroke-miterlimit="1.45" shape-rendering="geometricPrecision" transform="matrix(1,0,0,1,15,15)" stroke-linecap="butt">
      <ellipse rx="115.5" fill="none" ry="41.5" clip-path="url(#clipPath2)" cx="334.5" cy="163.8765"/>
      <text x="268.8018" xml:space="preserve" y="168.5903" clip-path="url(#clipPath2)" font-family="sans-serif" stroke="none">Random sphere sampler</text>
    </g>
    <g fill="rgb(255,204,0)" text-rendering="geometricPrecision" shape-rendering="geometricPrecision" transform="matrix(1,0,0,1,15,15)" stroke="rgb(255,204,0)">
      <rect x="238" width="193" height="55" y="225.3765" clip-path="url(#clipPath2)" stroke="none"/>
    </g>
    <g text-rendering="geometricPrecision" stroke-miterlimit="1.45" shape-rendering="geometricPrecision" transform="matrix(1,0,0,1,15,15)" stroke-linecap="butt">
      <rect fill="none" x="238" width="193" height="55" y="225.3765" clip-path="url(#clipPath2)"/>
      <text x="293.8125" xml:space="preserve" y="250.2397" clip-path="url(#clipPath2)" font-family="sans-serif" stroke="none">Sphere-sample</text>
      <text x="260.7803" xml:space="preserve" y="264.9409" clip-path="url(#clipPath2)" font-family="sans-serif" stroke="none">(50-150 neighboring genes)</text>
      <path fill="none" d="M334.5 205.3765 L334.5 217.3374" clip-path="url(#clipPath2)"/>
      <path d="M334.5 225.3374 L339.5 213.3374 L334.5 216.3374 L329.5 213.3374 Z" clip-path="url(#clipPath2)" stroke="none"/>
    </g>
    <g fill="rgb(245,245,245)" text-rendering="geometricPrecision" shape-rendering="geometricPrecision" transform="matrix(1,0,0,1,15,15)" stroke="rgb(245,245,245)">
      <rect x="0" y="0" clip-path="url(#clipPath2)" width="669" rx="4" ry="4" height="107.3765" stroke="none"/>
      <rect x="0" y="0" clip-path="url(#clipPath2)" fill="rgb(235,235,235)" width="669" height="22.3765" stroke="none"/>
    </g>
    <g font-size="15px" stroke-linecap="butt" transform="matrix(1,0,0,1,15,15)" text-rendering="geometricPrecision" font-family="sans-serif" shape-rendering="geometricPrecision" stroke-miterlimit="1.45">
      <text x="602.7886" xml:space="preserve" y="17.0806" clip-path="url(#clipPath2)" stroke="none">Database</text>
      <rect x="0" y="0" clip-path="url(#clipPath2)" fill="none" width="669" stroke-dasharray="6,2" rx="4" ry="4" height="107.3765"/>
    </g>
    <g fill="rgb(255,204,0)" text-rendering="geometricPrecision" shape-rendering="geometricPrecision" transform="matrix(1,0,0,1,15,15)" stroke="rgb(255,204,0)">
      <rect x="15" width="193" height="55" y="37.3765" clip-path="url(#clipPath2)" stroke="none"/>
    </g>
    <g text-rendering="geometricPrecision" stroke-miterlimit="1.45" shape-rendering="geometricPrecision" transform="matrix(1,0,0,1,15,15)" stroke-linecap="butt">
      <rect fill="none" x="15" width="193" height="55" y="37.3765" clip-path="url(#clipPath2)"/>
      <text x="93.8223" xml:space="preserve" y="69.5903" clip-path="url(#clipPath2)" font-family="sans-serif" stroke="none">Genes</text>
    </g>
    <g fill="rgb(255,204,0)" text-rendering="geometricPrecision" shape-rendering="geometricPrecision" transform="matrix(1,0,0,1,15,15)" stroke="rgb(255,204,0)">
      <rect x="238" width="193" height="55" y="37.3765" clip-path="url(#clipPath2)" stroke="none"/>
    </g>
    <g text-rendering="geometricPrecision" stroke-miterlimit="1.45" shape-rendering="geometricPrecision" transform="matrix(1,0,0,1,15,15)" stroke-linecap="butt">
      <rect fill="none" x="238" width="193" height="55" y="37.3765" clip-path="url(#clipPath2)"/>
      <text x="301.4824" xml:space="preserve" y="69.5903" clip-path="url(#clipPath2)" font-family="sans-serif" stroke="none">3D positions</text>
    </g>
    <g fill="rgb(255,204,0)" text-rendering="geometricPrecision" shape-rendering="geometricPrecision" transform="matrix(1,0,0,1,15,15)" stroke="rgb(255,204,0)">
      <rect x="461" width="193" height="55" y="37.3765" clip-path="url(#clipPath2)" stroke="none"/>
    </g>
    <g text-rendering="geometricPrecision" stroke-miterlimit="1.45" shape-rendering="geometricPrecision" transform="matrix(1,0,0,1,15,15)" stroke-linecap="butt">
      <rect fill="none" x="461" width="193" height="55" y="37.3765" clip-path="url(#clipPath2)"/>
      <text x="514.4746" xml:space="preserve" y="69.5903" clip-path="url(#clipPath2)" font-family="sans-serif" stroke="none">Gene properties</text>
    </g>
    <g fill="rgb(255,204,0)" text-rendering="geometricPrecision" shape-rendering="geometricPrecision" transform="matrix(1,0,0,1,15,15)" stroke="rgb(255,204,0)">
      <ellipse rx="115.5" ry="41.5" clip-path="url(#clipPath2)" cx="228.5" cy="341.8765" stroke="none"/>
    </g>
    <g text-rendering="geometricPrecision" stroke-miterlimit="1.45" shape-rendering="geometricPrecision" transform="matrix(1,0,0,1,15,15)" stroke-linecap="butt">
      <ellipse rx="115.5" fill="none" ry="41.5" clip-path="url(#clipPath2)" cx="228.5" cy="341.8765"/>
      <text x="170.8145" xml:space="preserve" y="346.5903" clip-path="url(#clipPath2)" font-family="sans-serif" stroke="none">Fully random sampler</text>
    </g>
    <g fill="rgb(255,204,0)" text-rendering="geometricPrecision" shape-rendering="geometricPrecision" transform="matrix(1,0,0,1,15,15)" stroke="rgb(255,204,0)">
      <rect x="132" width="193" height="55" y="403.3765" clip-path="url(#clipPath2)" stroke="none"/>
    </g>
    <g text-rendering="geometricPrecision" stroke-miterlimit="1.45" shape-rendering="geometricPrecision" transform="matrix(1,0,0,1,15,15)" stroke-linecap="butt">
      <rect fill="none" x="132" width="193" height="55" y="403.3765" clip-path="url(#clipPath2)"/>
      <text x="184.4814" xml:space="preserve" y="428.2397" clip-path="url(#clipPath2)" font-family="sans-serif" stroke="none">Random-sample</text>
      <text x="154.7803" xml:space="preserve" y="442.9409" clip-path="url(#clipPath2)" font-family="sans-serif" stroke="none">(50-150 neighboring genes)</text>
    </g>
    <g fill="rgb(255,204,0)" text-rendering="geometricPrecision" shape-rendering="geometricPrecision" transform="matrix(1,0,0,1,15,15)" stroke="rgb(255,204,0)">
      <ellipse rx="115.5" ry="41.5" clip-path="url(#clipPath2)" cx="382.75" cy="530.8765" stroke="none"/>
    </g>
    <g text-rendering="geometricPrecision" stroke-miterlimit="1.45" shape-rendering="geometricPrecision" transform="matrix(1,0,0,1,15,15)" stroke-linecap="butt">
      <ellipse rx="115.5" fill="none" ry="41.5" clip-path="url(#clipPath2)" cx="382.75" cy="530.8765"/>
      <text x="332.0635" xml:space="preserve" y="535.5903" clip-path="url(#clipPath2)" font-family="sans-serif" stroke="none">Metric computation</text>
    </g>
    <g fill="rgb(255,204,0)" text-rendering="geometricPrecision" shape-rendering="geometricPrecision" transform="matrix(1,0,0,1,15,15)" stroke="rgb(255,204,0)">
      <rect x="174.75" width="193" height="55" y="603.3765" clip-path="url(#clipPath2)" stroke="none"/>
    </g>
    <g text-rendering="geometricPrecision" stroke-miterlimit="1.45" shape-rendering="geometricPrecision" transform="matrix(1,0,0,1,15,15)" stroke-linecap="butt">
      <rect fill="none" x="174.75" width="193" height="55" y="603.3765" clip-path="url(#clipPath2)"/>
      <text x="233.5713" xml:space="preserve" y="635.5903" clip-path="url(#clipPath2)" font-family="sans-serif" stroke="none">Sphere-metric</text>
    </g>
    <g fill="rgb(255,204,0)" text-rendering="geometricPrecision" shape-rendering="geometricPrecision" transform="matrix(1,0,0,1,15,15)" stroke="rgb(255,204,0)">
      <rect x="397.75" width="193" height="55" y="603.3765" clip-path="url(#clipPath2)" stroke="none"/>
    </g>
    <g text-rendering="geometricPrecision" stroke-miterlimit="1.45" shape-rendering="geometricPrecision" transform="matrix(1,0,0,1,15,15)" stroke-linecap="butt">
      <rect fill="none" x="397.75" width="193" height="55" y="603.3765" clip-path="url(#clipPath2)"/>
      <text x="453.2402" xml:space="preserve" y="635.5903" clip-path="url(#clipPath2)" font-family="sans-serif" stroke="none">Random-metric</text>
    </g>
    <g fill="rgb(255,204,0)" text-rendering="geometricPrecision" shape-rendering="geometricPrecision" transform="matrix(1,0,0,1,15,15)" stroke="rgb(255,204,0)">
      <ellipse rx="115.5" ry="41.5" clip-path="url(#clipPath2)" cx="382.75" cy="730.8765" stroke="none"/>
    </g>
    <g text-rendering="geometricPrecision" stroke-miterlimit="1.45" shape-rendering="geometricPrecision" transform="matrix(1,0,0,1,15,15)" stroke-linecap="butt">
      <ellipse rx="115.5" fill="none" ry="41.5" clip-path="url(#clipPath2)" cx="382.75" cy="730.8765"/>
      <text x="358.0732" xml:space="preserve" y="728.2397" clip-path="url(#clipPath2)" font-family="sans-serif" stroke="none">Compare</text>
      <text x="335.0576" xml:space="preserve" y="742.9409" clip-path="url(#clipPath2)" font-family="sans-serif" stroke="none">Repeat 10K times</text>
    </g>
    <g fill="rgb(255,204,0)" text-rendering="geometricPrecision" shape-rendering="geometricPrecision" transform="matrix(1,0,0,1,15,15)" stroke="rgb(255,204,0)">
      <rect x="717.6528" width="193" height="55" y="171.9021" clip-path="url(#clipPath2)" stroke="none"/>
    </g>
    <g text-rendering="geometricPrecision" stroke-miterlimit="1.45" shape-rendering="geometricPrecision" transform="matrix(1,0,0,1,15,15)" stroke-linecap="butt">
      <rect fill="none" x="717.6528" width="193" height="55" y="171.9021" clip-path="url(#clipPath2)"/>
      <text x="743.7817" xml:space="preserve" y="204.116" clip-path="url(#clipPath2)" font-family="sans-serif" stroke="none">10K spheres with p-values</text>
    </g>
    <g fill="rgb(255,204,0)" text-rendering="geometricPrecision" shape-rendering="geometricPrecision" transform="matrix(1,0,0,1,15,15)" stroke="rgb(255,204,0)">
      <ellipse rx="115.5" ry="41.5" clip-path="url(#clipPath2)" cx="814.1528" cy="288.4021" stroke="none"/>
    </g>
    <g text-rendering="geometricPrecision" stroke-miterlimit="1.45" shape-rendering="geometricPrecision" transform="matrix(1,0,0,1,15,15)" stroke-linecap="butt">
      <ellipse rx="115.5" fill="none" ry="41.5" clip-path="url(#clipPath2)" cx="814.1528" cy="288.4021"/>
      <text x="728.7758" xml:space="preserve" y="285.7654" clip-path="url(#clipPath2)" font-family="sans-serif" stroke="none">Benjamini-Hochberg adjustment</text>
      <text x="760.7885" xml:space="preserve" y="300.4666" clip-path="url(#clipPath2)" font-family="sans-serif" stroke="none">and filtering by PAdj</text>
    </g>
    <g fill="rgb(255,204,0)" text-rendering="geometricPrecision" shape-rendering="geometricPrecision" transform="matrix(1,0,0,1,15,15)" stroke="rgb(255,204,0)">
      <rect x="717.6528" width="193" height="55" y="349.9021" clip-path="url(#clipPath2)" stroke="none"/>
    </g>
    <g text-rendering="geometricPrecision" stroke-miterlimit="1.45" shape-rendering="geometricPrecision" transform="matrix(1,0,0,1,15,15)" stroke-linecap="butt">
      <rect fill="none" x="717.6528" width="193" height="55" y="349.9021" clip-path="url(#clipPath2)"/>
      <text x="741.1157" xml:space="preserve" y="382.116" clip-path="url(#clipPath2)" font-family="sans-serif" stroke="none">Significant Sphere-samples</text>
    </g>
    <g fill="rgb(255,204,0)" text-rendering="geometricPrecision" shape-rendering="geometricPrecision" transform="matrix(1,0,0,1,15,15)" stroke="rgb(255,204,0)">
      <ellipse rx="115.5" ry="41.5" clip-path="url(#clipPath2)" cx="814.1528" cy="466.4021" stroke="none"/>
    </g>
    <g text-rendering="geometricPrecision" stroke-miterlimit="1.45" shape-rendering="geometricPrecision" transform="matrix(1,0,0,1,15,15)" stroke-linecap="butt">
      <ellipse rx="115.5" fill="none" ry="41.5" clip-path="url(#clipPath2)" cx="814.1528" cy="466.4021"/>
      <text x="755.1313" xml:space="preserve" y="456.4148" clip-path="url(#clipPath2)" font-family="sans-serif" stroke="none">Hierarchical clustering</text>
      <text x="710.0932" xml:space="preserve" y="471.116" clip-path="url(#clipPath2)" font-family="sans-serif" stroke="none">using overlap as(ratio of shared genes)</text>
      <text x="791.8051" xml:space="preserve" y="485.8171" clip-path="url(#clipPath2)" font-family="sans-serif" stroke="none">distance</text>
    </g>
    <g fill="rgb(255,204,0)" text-rendering="geometricPrecision" shape-rendering="geometricPrecision" transform="matrix(1,0,0,1,15,15)" stroke="rgb(255,204,0)">
      <rect x="717.6528" width="193" height="55" y="527.9021" clip-path="url(#clipPath2)" stroke="none"/>
    </g>
    <g text-rendering="geometricPrecision" stroke-miterlimit="1.45" shape-rendering="geometricPrecision" transform="matrix(1,0,0,1,15,15)" stroke-linecap="butt">
      <rect fill="none" x="717.6528" width="193" height="55" y="527.9021" clip-path="url(#clipPath2)"/>
      <text x="798.1479" xml:space="preserve" y="560.116" clip-path="url(#clipPath2)" font-family="sans-serif" stroke="none">Fields</text>
      <path fill="none" d="M334.5 92.3765 L334.5 114.3765" clip-path="url(#clipPath2)"/>
      <path d="M334.5 122.3765 L339.5 110.3765 L334.5 113.3765 L329.5 110.3765 Z" clip-path="url(#clipPath2)" stroke="none"/>
      <path fill="none" d="M291 280.3765 L291 292.3765" clip-path="url(#clipPath2)"/>
      <path d="M291 300.3765 L296 288.3765 L291 291.3765 L286 288.3765 Z" clip-path="url(#clipPath2)" stroke="none"/>
      <path fill="none" d="M160.5 92.3765 L160.5 292.3765" clip-path="url(#clipPath2)"/>
      <path d="M160.5 300.3765 L165.5 288.3765 L160.5 291.3765 L155.5 288.3765 Z" clip-path="url(#clipPath2)" stroke="none"/>
      <path fill="none" d="M228.5 383.3765 L228.5 395.3374" clip-path="url(#clipPath2)"/>
      <path d="M228.5 403.3374 L233.5 391.3374 L228.5 394.3374 L223.5 391.3374 Z" clip-path="url(#clipPath2)" stroke="none"/>
      <path fill="none" d="M391 280.3765 L391 481.3765" clip-path="url(#clipPath2)"/>
      <path d="M391 489.3765 L396 477.3765 L391 480.3765 L386 477.3765 Z" clip-path="url(#clipPath2)" stroke="none"/>
      <path fill="none" d="M296.125 458.3765 L296.125 481.3765" clip-path="url(#clipPath2)"/>
      <path d="M296.125 489.3765 L301.125 477.3765 L296.125 480.3765 L291.125 477.3765 Z" clip-path="url(#clipPath2)" stroke="none"/>
      <path fill="none" d="M479.625 92.3765 L479.625 481.3765" clip-path="url(#clipPath2)"/>
      <path d="M479.625 489.3765 L484.625 477.3765 L479.625 480.3765 L474.625 477.3765 Z" clip-path="url(#clipPath2)" stroke="none"/>
      <path fill="none" d="M317.5 572.3765 L317.5 595.3462" clip-path="url(#clipPath2)"/>
      <path d="M317.5 603.3462 L322.5 591.3462 L317.5 594.3462 L312.5 591.3462 Z" clip-path="url(#clipPath2)" stroke="none"/>
      <path fill="none" d="M448 572.3765 L448 595.3462" clip-path="url(#clipPath2)"/>
      <path d="M448 603.3462 L453 591.3462 L448 594.3462 L443 591.3462 Z" clip-path="url(#clipPath2)" stroke="none"/>
      <path fill="none" d="M317.5 658.3765 L317.5 681.3765" clip-path="url(#clipPath2)"/>
      <path d="M317.5 689.3765 L322.5 677.3765 L317.5 680.3765 L312.5 677.3765 Z" clip-path="url(#clipPath2)" stroke="none"/>
      <path fill="none" d="M448 658.3765 L448 681.3765" clip-path="url(#clipPath2)"/>
      <path d="M448 689.3765 L453 677.3765 L448 680.3765 L443 677.3765 Z" clip-path="url(#clipPath2)" stroke="none"/>
      <path fill="none" d="M498.25 730.8765 L683.8264 730.8765 L683.8264 199.4021 L709.6198 199.4021" clip-path="url(#clipPath2)"/>
      <path d="M717.6198 199.4021 L705.6198 194.4021 L708.6198 199.4021 L705.6198 204.4021 Z" clip-path="url(#clipPath2)" stroke="none"/>
      <path fill="none" d="M814.1528 226.9021 L814.1528 238.9021" clip-path="url(#clipPath2)"/>
      <path d="M814.1528 246.9021 L819.1528 234.9021 L814.1528 237.9021 L809.1528 234.9021 Z" clip-path="url(#clipPath2)" stroke="none"/>
      <path fill="none" d="M814.1528 329.9021 L814.1528 341.863" clip-path="url(#clipPath2)"/>
      <path d="M814.1528 349.863 L819.1528 337.863 L814.1528 340.863 L809.1528 337.863 Z" clip-path="url(#clipPath2)" stroke="none"/>
      <path fill="none" d="M814.1528 404.9021 L814.1528 416.9021" clip-path="url(#clipPath2)"/>
      <path d="M814.1528 424.9021 L819.1528 412.9021 L814.1528 415.9021 L809.1528 412.9021 Z" clip-path="url(#clipPath2)" stroke="none"/>
      <path fill="none" d="M814.1528 507.9021 L814.1528 519.863" clip-path="url(#clipPath2)"/>
      <path d="M814.1528 527.863 L819.1528 515.863 L814.1528 518.863 L809.1528 515.863 Z" clip-path="url(#clipPath2)" stroke="none"/>
    </g>
  </g>
</svg>
