<?xml version="1.0" encoding="UTF-8" standalone="no"?>
<!-- Created with Inkscape (http://www.inkscape.org/) -->

<svg
   xmlns:dc="http://purl.org/dc/elements/1.1/"
   xmlns:cc="http://creativecommons.org/ns#"
   xmlns:rdf="http://www.w3.org/1999/02/22-rdf-syntax-ns#"
   xmlns:svg="http://www.w3.org/2000/svg"
   xmlns="http://www.w3.org/2000/svg"
   xmlns:sodipodi="http://sodipodi.sourceforge.net/DTD/sodipodi-0.dtd"
   xmlns:inkscape="http://www.inkscape.org/namespaces/inkscape"
   width="243.84mm"
   height="159.91597mm"
   viewBox="0 0 243.84 159.91597"
   version="1.1"
   id="svg8"
   inkscape:version="0.92.4 (5da689c313, 2019-01-14)"
   sodipodi:docname="TightCommunitiesDistancesDistribution.svg">
  <defs
     id="defs2">
    <clipPath
       id="clipPath841"
       clipPathUnits="userSpaceOnUse">
      <path
         style="clip-rule:evenodd"
         inkscape:connector-curvature="0"
         id="path839"
         d="M 100.59,129.86 H 715.25 V 476.27 H 100.59 Z" />
    </clipPath>
    <clipPath
       id="clipPath851"
       clipPathUnits="userSpaceOnUse">
      <path
         style="clip-rule:evenodd"
         inkscape:connector-curvature="0"
         id="path849"
         d="M 100.59,129.86 H 715.25 V 476.27 H 100.59 Z" />
    </clipPath>
    <clipPath
       id="clipPath861"
       clipPathUnits="userSpaceOnUse">
      <path
         style="clip-rule:evenodd"
         inkscape:connector-curvature="0"
         id="path859"
         d="M 50.88,79.8 H 741.12 V 531.96 H 50.88 Z" />
    </clipPath>
    <clipPath
       id="clipPath873"
       clipPathUnits="userSpaceOnUse">
      <path
         style="clip-rule:evenodd"
         inkscape:connector-curvature="0"
         id="path871"
         d="M 50.88,79.8 H 741.12 V 531.96 H 50.88 Z" />
    </clipPath>
    <clipPath
       id="clipPath885"
       clipPathUnits="userSpaceOnUse">
      <path
         style="clip-rule:evenodd"
         inkscape:connector-curvature="0"
         id="path883"
         d="M 50.88,79.8 H 741.12 V 531.96 H 50.88 Z" />
    </clipPath>
    <clipPath
       id="clipPath897"
       clipPathUnits="userSpaceOnUse">
      <path
         style="clip-rule:evenodd"
         inkscape:connector-curvature="0"
         id="path895"
         d="M 50.88,79.8 H 741.12 V 531.96 H 50.88 Z" />
    </clipPath>
    <clipPath
       id="clipPath909"
       clipPathUnits="userSpaceOnUse">
      <path
         style="clip-rule:evenodd"
         inkscape:connector-curvature="0"
         id="path907"
         d="M 50.88,79.8 H 741.12 V 531.96 H 50.88 Z" />
    </clipPath>
    <clipPath
       id="clipPath921"
       clipPathUnits="userSpaceOnUse">
      <path
         style="clip-rule:evenodd"
         inkscape:connector-curvature="0"
         id="path919"
         d="M 50.88,79.8 H 741.12 V 531.96 H 50.88 Z" />
    </clipPath>
    <clipPath
       id="clipPath933"
       clipPathUnits="userSpaceOnUse">
      <path
         style="clip-rule:evenodd"
         inkscape:connector-curvature="0"
         id="path931"
         d="M 50.88,79.8 H 741.12 V 531.96 H 50.88 Z" />
    </clipPath>
    <clipPath
       id="clipPath945"
       clipPathUnits="userSpaceOnUse">
      <path
         style="clip-rule:evenodd"
         inkscape:connector-curvature="0"
         id="path943"
         d="M 50.88,79.8 H 741.12 V 531.96 H 50.88 Z" />
    </clipPath>
    <clipPath
       id="clipPath957"
       clipPathUnits="userSpaceOnUse">
      <path
         style="clip-rule:evenodd"
         inkscape:connector-curvature="0"
         id="path955"
         d="M 50.88,79.8 H 741.12 V 531.96 H 50.88 Z" />
    </clipPath>
    <clipPath
       id="clipPath969"
       clipPathUnits="userSpaceOnUse">
      <path
         style="clip-rule:evenodd"
         inkscape:connector-curvature="0"
         id="path967"
         d="M 50.88,79.8 H 741.12 V 531.96 H 50.88 Z" />
    </clipPath>
    <clipPath
       id="clipPath981"
       clipPathUnits="userSpaceOnUse">
      <path
         style="clip-rule:evenodd"
         inkscape:connector-curvature="0"
         id="path979"
         d="M 50.88,79.8 H 741.12 V 531.96 H 50.88 Z" />
    </clipPath>
    <clipPath
       id="clipPath993"
       clipPathUnits="userSpaceOnUse">
      <path
         style="clip-rule:evenodd"
         inkscape:connector-curvature="0"
         id="path991"
         d="M 50.88,79.8 H 741.12 V 531.96 H 50.88 Z" />
    </clipPath>
    <clipPath
       id="clipPath1005"
       clipPathUnits="userSpaceOnUse">
      <path
         style="clip-rule:evenodd"
         inkscape:connector-curvature="0"
         id="path1003"
         d="M 50.88,79.8 H 741.12 V 531.96 H 50.88 Z" />
    </clipPath>
    <clipPath
       id="clipPath1017"
       clipPathUnits="userSpaceOnUse">
      <path
         style="clip-rule:evenodd"
         inkscape:connector-curvature="0"
         id="path1015"
         d="M 50.88,79.8 H 741.12 V 531.96 H 50.88 Z" />
    </clipPath>
    <clipPath
       id="clipPath1029"
       clipPathUnits="userSpaceOnUse">
      <path
         style="clip-rule:evenodd"
         inkscape:connector-curvature="0"
         id="path1027"
         d="M 50.88,79.8 H 741.12 V 531.96 H 50.88 Z" />
    </clipPath>
    <clipPath
       id="clipPath1041"
       clipPathUnits="userSpaceOnUse">
      <path
         style="clip-rule:evenodd"
         inkscape:connector-curvature="0"
         id="path1039"
         d="M 50.88,79.8 H 741.12 V 531.96 H 50.88 Z" />
    </clipPath>
    <clipPath
       id="clipPath1053"
       clipPathUnits="userSpaceOnUse">
      <path
         style="clip-rule:evenodd"
         inkscape:connector-curvature="0"
         id="path1051"
         d="M 50.88,79.8 H 741.12 V 531.96 H 50.88 Z" />
    </clipPath>
    <clipPath
       id="clipPath1067"
       clipPathUnits="userSpaceOnUse">
      <path
         style="clip-rule:evenodd"
         inkscape:connector-curvature="0"
         id="path1065"
         d="M 50.88,79.8 H 741.12 V 531.96 H 50.88 Z" />
    </clipPath>
    <clipPath
       id="clipPath1081"
       clipPathUnits="userSpaceOnUse">
      <path
         style="clip-rule:evenodd"
         inkscape:connector-curvature="0"
         id="path1079"
         d="M 50.88,79.8 H 741.12 V 531.96 H 50.88 Z" />
    </clipPath>
    <clipPath
       id="clipPath1093"
       clipPathUnits="userSpaceOnUse">
      <path
         style="clip-rule:evenodd"
         inkscape:connector-curvature="0"
         id="path1091"
         d="M 50.4,79.32 H 741.6 V 532.68 H 50.4 Z" />
    </clipPath>
  </defs>
  <sodipodi:namedview
     id="base"
     pagecolor="#ffffff"
     bordercolor="#666666"
     borderopacity="1.0"
     inkscape:pageopacity="0.0"
     inkscape:pageshadow="2"
     inkscape:zoom="0.7"
     inkscape:cx="346.97593"
     inkscape:cy="319.13243"
     inkscape:document-units="mm"
     inkscape:current-layer="layer1"
     showgrid="false"
     fit-margin-top="0"
     fit-margin-left="0"
     fit-margin-right="0"
     fit-margin-bottom="0"
     inkscape:window-width="1920"
     inkscape:window-height="794"
     inkscape:window-x="-8"
     inkscape:window-y="215"
     inkscape:window-maximized="1" />
  <metadata
     id="metadata5">
    <rdf:RDF>
      <cc:Work
         rdf:about="">
        <dc:format>image/svg+xml</dc:format>
        <dc:type
           rdf:resource="http://purl.org/dc/dcmitype/StillImage" />
        <dc:title></dc:title>
      </cc:Work>
    </rdf:RDF>
  </metadata>
  <g
     inkscape:label="Layer 1"
     inkscape:groupmode="layer"
     id="layer1"
     transform="translate(10.794998,-74.167015)">
    <g
       transform="matrix(0.35277777,0,0,-0.35277777,-28.574998,262.06531)"
       inkscape:label="TightCommunityDistancesDistribution"
       id="g823">
      <path
         inkscape:connector-curvature="0"
         id="path825"
         style="fill:#ffffff;fill-opacity:1;fill-rule:evenodd;stroke:none"
         d="m 50.951,79.861 h 690.12 v 452.2 H 50.951 Z" />
      <path
         inkscape:connector-curvature="0"
         id="path827"
         style="fill:none;stroke:#d9d9d9;stroke-width:1.12820005;stroke-linecap:butt;stroke-linejoin:round;stroke-miterlimit:10;stroke-dasharray:none;stroke-opacity:1"
         d="m 100.73,130.82 h 613.5 m -613.5,98.69 h 613.5 m -613.5,49.28 h 613.5 m -613.5,49.46 h 613.5 m -613.5,49.28 h 613.5 m -613.5,49.46 h 613.5 m -613.5,49.27 h 613.5" />
      <path
         inkscape:connector-curvature="0"
         id="path829"
         style="fill:none;stroke:#d9d9d9;stroke-width:1.12820005;stroke-linecap:butt;stroke-linejoin:round;stroke-miterlimit:10;stroke-dasharray:none;stroke-opacity:1"
         d="M 188.32,476.26 V 130.82 m 87.74,345.44 V 130.82 m 87.55,345.44 V 130.82 m 87.73,345.44 V 130.82 m 87.55,345.44 V 130.82 m 87.73,345.44 V 130.82 m 87.61,345.44 V 130.82" />
      <path
         inkscape:connector-curvature="0"
         id="path831"
         style="fill:none;stroke:#bfbfbf;stroke-width:1.12820005;stroke-linecap:butt;stroke-linejoin:round;stroke-miterlimit:10;stroke-dasharray:none;stroke-opacity:1"
         d="M 100.73,130.82 V 476.26" />
      <path
         inkscape:connector-curvature="0"
         id="path833"
         style="fill:none;stroke:#bfbfbf;stroke-width:1.12820005;stroke-linecap:butt;stroke-linejoin:round;stroke-miterlimit:10;stroke-dasharray:none;stroke-opacity:1"
         d="m 100.73,180.17 h 613.5" />
      <g
         id="g835">
        <g
           clip-path="url(#clipPath841)"
           id="g837">
          <path
             inkscape:connector-curvature="0"
             id="path843"
             style="fill:none;stroke:#4472c4;stroke-width:2.25650001;stroke-linecap:round;stroke-linejoin:round;stroke-miterlimit:10;stroke-dasharray:none;stroke-opacity:1"
             d="m 100.73,180.17 c 7.3,0 14.6,-0.02 21.91,0 7.3,0.01 14.61,-1.19 21.91,0.1 7.3,1.28 14.61,2.55 21.91,7.6 7.3,5.05 14.61,16.3 21.91,22.7 7.3,6.4 14.61,12.56 21.91,15.69 7.3,3.13 14.61,-2.62 21.91,3.06 7.31,5.67 14.61,25.94 21.91,30.99 7.31,5.05 14.61,-7.71 21.91,-0.69 7.31,7.02 14.61,33.13 21.91,42.83 7.31,9.71 14.61,7.6 21.92,15.4 7.3,7.8 14.6,21.75 21.91,31.39 7.3,9.64 14.6,28.7 21.91,26.45 7.3,-2.26 14.6,-35.24 21.91,-39.97 6,-3.9 15.91,0.71 21.91,11.54 7.3,13.2 14.61,59.68 21.91,67.61 7.3,7.93 14.61,-20.3 21.91,-20.03 7.3,0.26 14.61,17.73 21.91,21.61 7.31,3.88 14.61,6.58 21.91,1.68 7.31,-4.9 14.61,-16.57 21.91,-31.09 7.31,-14.53 14.61,-37.39 21.91,-56.06 7.31,-18.67 14.61,-41.09 21.91,-55.96 7.31,-14.87 14.61,-23.33 21.92,-33.26 7.3,-9.94 14.6,-19.93 21.91,-26.36 7.3,-6.43 14.6,-9.11 21.91,-12.24 7.3,-3.12 14.6,-4.49 21.91,-6.51 7.3,-2.02 14.61,-3.75 21.91,-5.63" />
        </g>
      </g>
      <g
         id="g845">
        <g
           clip-path="url(#clipPath851)"
           id="g847">
          <path
             inkscape:connector-curvature="0"
             id="path853"
             style="fill:none;stroke:#ed7d31;stroke-width:2.25650001;stroke-linecap:round;stroke-linejoin:round;stroke-miterlimit:10;stroke-dasharray:none;stroke-opacity:1"
             d="m 100.73,180.17 c 7.3,0.06 14.6,-0.64 21.91,0.2 7.3,0.83 14.61,2.04 21.91,4.83 7.3,2.8 14.61,7.8 21.91,11.94 7.3,4.15 14.61,7.55 21.91,12.93 7.3,5.38 14.61,12.24 21.91,19.35 7.3,7.1 14.61,18.85 21.91,23.29 7.31,4.44 14.61,0.13 21.91,3.36 7.31,3.22 14.61,11.26 21.91,15.99 7.31,4.72 14.61,9.13 21.91,12.33 7.31,3.21 14.61,3.01 21.92,6.91 7.3,3.9 14.6,11.04 21.91,16.48 7.3,5.45 14.6,11.93 21.91,16.19 7.3,4.26 14.6,5.86 21.91,9.38 7.3,3.52 14.61,9.03 21.91,11.74 7.3,2.72 14.61,3.7 21.91,4.54 7.3,0.84 14.61,-0.72 21.91,0.5 7.3,1.21 14.61,7.56 21.91,6.81 7.31,-0.76 14.61,-7.83 21.91,-11.35 7.31,-3.52 14.61,-7.55 21.91,-9.78 7.31,-2.22 14.61,0.63 21.91,-3.55 7.31,-4.18 14.61,-16.2 21.91,-21.52 7.31,-5.31 14.61,-5.23 21.92,-10.36 7.3,-5.13 14.6,-13.83 21.91,-20.43 7.3,-6.59 14.6,-12.81 21.91,-19.15 7.3,-6.33 14.6,-12.86 21.91,-18.85 7.3,-5.98 14.61,-11.38 21.91,-17.07" />
        </g>
      </g>
      <g
         id="g855">
        <g
           clip-path="url(#clipPath861)"
           id="g857">
          <text
             id="text865"
             style="font-variant:normal;font-weight:normal;font-size:13.53600025px;font-family:Calibri;-inkscape-font-specification:Calibri;writing-mode:lr-tb;fill:#595959;fill-opacity:1;fill-rule:nonzero;stroke:none"
             transform="matrix(1,0,0,-1,63.456,126.91)">
            <tspan
               id="tspan863"
               sodipodi:role="line"
               y="0"
               x="0 4.1519961 11.024728 17.897461">-500</tspan>
          </text>
        </g>
      </g>
      <g
         id="g867">
        <g
           clip-path="url(#clipPath873)"
           id="g869">
          <text
             id="text877"
             style="font-variant:normal;font-weight:normal;font-size:13.53600025px;font-family:Calibri;-inkscape-font-specification:Calibri;writing-mode:lr-tb;fill:#595959;fill-opacity:1;fill-rule:nonzero;stroke:none"
             transform="matrix(1,0,0,-1,81.312,176.28)">
            <tspan
               id="tspan875"
               y="0"
               x="0">0</tspan>
          </text>
        </g>
      </g>
      <g
         id="g879">
        <g
           clip-path="url(#clipPath885)"
           id="g881">
          <text
             id="text889"
             style="font-variant:normal;font-weight:normal;font-size:13.56000042px;font-family:Calibri;-inkscape-font-specification:Calibri;writing-mode:lr-tb;fill:#595959;fill-opacity:1;fill-rule:nonzero;stroke:none"
             transform="matrix(1,0,0,-1,67.608,225.65)">
            <tspan
               id="tspan887"
               sodipodi:role="line"
               y="0"
               x="0 6.8400202 13.68004">500</tspan>
          </text>
        </g>
      </g>
      <g
         id="g891">
        <g
           clip-path="url(#clipPath897)"
           id="g893">
          <text
             id="text901"
             style="font-variant:normal;font-weight:normal;font-size:13.53600025px;font-family:Calibri;-inkscape-font-specification:Calibri;writing-mode:lr-tb;fill:#595959;fill-opacity:1;fill-rule:nonzero;stroke:none"
             transform="matrix(1,0,0,-1,60.744,274.99)">
            <tspan
               id="tspan899"
               sodipodi:role="line"
               y="0"
               x="0 6.8640022 13.728004 20.592007">1000</tspan>
          </text>
        </g>
      </g>
      <g
         id="g903">
        <g
           clip-path="url(#clipPath909)"
           id="g905">
          <text
             id="text913"
             style="font-variant:normal;font-weight:normal;font-size:13.53600025px;font-family:Calibri;-inkscape-font-specification:Calibri;writing-mode:lr-tb;fill:#595959;fill-opacity:1;fill-rule:nonzero;stroke:none"
             transform="matrix(1,0,0,-1,60.744,324.36)">
            <tspan
               id="tspan911"
               sodipodi:role="line"
               y="0"
               x="0 6.8640022 13.728004 20.592007">1500</tspan>
          </text>
        </g>
      </g>
      <g
         id="g915">
        <g
           clip-path="url(#clipPath921)"
           id="g917">
          <text
             id="text925"
             style="font-variant:normal;font-weight:normal;font-size:13.53600025px;font-family:Calibri;-inkscape-font-specification:Calibri;writing-mode:lr-tb;fill:#595959;fill-opacity:1;fill-rule:nonzero;stroke:none"
             transform="matrix(1,0,0,-1,60.744,373.7)">
            <tspan
               id="tspan923"
               sodipodi:role="line"
               y="0"
               x="0 6.8640022 13.728004 20.592007">2000</tspan>
          </text>
        </g>
      </g>
      <g
         id="g927">
        <g
           clip-path="url(#clipPath933)"
           id="g929">
          <text
             id="text937"
             style="font-variant:normal;font-weight:normal;font-size:13.53600025px;font-family:Calibri;-inkscape-font-specification:Calibri;writing-mode:lr-tb;fill:#595959;fill-opacity:1;fill-rule:nonzero;stroke:none"
             transform="matrix(1,0,0,-1,60.744,423.07)">
            <tspan
               id="tspan935"
               sodipodi:role="line"
               y="0"
               x="0 6.8640022 13.728004 20.592007">2500</tspan>
          </text>
        </g>
      </g>
      <g
         id="g939">
        <g
           clip-path="url(#clipPath945)"
           id="g941">
          <text
             id="text949"
             style="font-variant:normal;font-weight:normal;font-size:13.53600025px;font-family:Calibri;-inkscape-font-specification:Calibri;writing-mode:lr-tb;fill:#595959;fill-opacity:1;fill-rule:nonzero;stroke:none"
             transform="matrix(1,0,0,-1,60.744,472.42)">
            <tspan
               id="tspan947"
               sodipodi:role="line"
               y="0"
               x="0 6.8640022 13.728004 20.592007">3000</tspan>
          </text>
        </g>
      </g>
      <g
         id="g951">
        <g
           clip-path="url(#clipPath957)"
           id="g953">
          <text
             id="text961"
             style="font-variant:normal;font-weight:normal;font-size:13.53600025px;font-family:Calibri;-inkscape-font-specification:Calibri;writing-mode:lr-tb;fill:#595959;fill-opacity:1;fill-rule:nonzero;stroke:none"
             transform="matrix(1,0,0,-1,97.32,158.66)">
            <tspan
               id="tspan959"
               y="0"
               x="0">0</tspan>
          </text>
        </g>
      </g>
      <g
         id="g963">
        <g
           clip-path="url(#clipPath969)"
           id="g965">
          <text
             id="text973"
             style="font-variant:normal;font-weight:normal;font-size:13.53600025px;font-family:Calibri;-inkscape-font-specification:Calibri;writing-mode:lr-tb;fill:#595959;fill-opacity:1;fill-rule:nonzero;stroke:none"
             transform="matrix(1,0,0,-1,181.54,158.66)">
            <tspan
               id="tspan971"
               sodipodi:role="line"
               y="0"
               x="0 6.8640022">20</tspan>
          </text>
        </g>
      </g>
      <g
         id="g975">
        <g
           clip-path="url(#clipPath981)"
           id="g977">
          <text
             id="text985"
             style="font-variant:normal;font-weight:normal;font-size:13.53600025px;font-family:Calibri;-inkscape-font-specification:Calibri;writing-mode:lr-tb;fill:#595959;fill-opacity:1;fill-rule:nonzero;stroke:none"
             transform="matrix(1,0,0,-1,269.18,158.66)">
            <tspan
               id="tspan983"
               sodipodi:role="line"
               y="0"
               x="0 6.8640022">40</tspan>
          </text>
        </g>
      </g>
      <g
         id="g987">
        <g
           clip-path="url(#clipPath993)"
           id="g989">
          <text
             id="text997"
             style="font-variant:normal;font-weight:normal;font-size:13.53600025px;font-family:Calibri;-inkscape-font-specification:Calibri;writing-mode:lr-tb;fill:#595959;fill-opacity:1;fill-rule:nonzero;stroke:none"
             transform="matrix(1,0,0,-1,356.86,158.66)">
            <tspan
               id="tspan995"
               sodipodi:role="line"
               y="0"
               x="0 6.8640022">60</tspan>
          </text>
        </g>
      </g>
      <g
         id="g999">
        <g
           clip-path="url(#clipPath1005)"
           id="g1001">
          <text
             id="text1009"
             style="font-variant:normal;font-weight:normal;font-size:13.53600025px;font-family:Calibri;-inkscape-font-specification:Calibri;writing-mode:lr-tb;fill:#595959;fill-opacity:1;fill-rule:nonzero;stroke:none"
             transform="matrix(1,0,0,-1,444.5,158.66)">
            <tspan
               id="tspan1007"
               sodipodi:role="line"
               y="0"
               x="0 6.8640022">80</tspan>
          </text>
        </g>
      </g>
      <g
         id="g1011">
        <g
           clip-path="url(#clipPath1017)"
           id="g1013">
          <text
             id="text1021"
             style="font-variant:normal;font-weight:normal;font-size:13.53600025px;font-family:Calibri;-inkscape-font-specification:Calibri;writing-mode:lr-tb;fill:#595959;fill-opacity:1;fill-rule:nonzero;stroke:none"
             transform="matrix(1,0,0,-1,528.72,158.66)">
            <tspan
               id="tspan1019"
               sodipodi:role="line"
               y="0"
               x="0 6.8640022 13.728004">100</tspan>
          </text>
        </g>
      </g>
      <g
         id="g1023">
        <g
           clip-path="url(#clipPath1029)"
           id="g1025">
          <text
             id="text1033"
             style="font-variant:normal;font-weight:normal;font-size:13.53600025px;font-family:Calibri;-inkscape-font-specification:Calibri;writing-mode:lr-tb;fill:#595959;fill-opacity:1;fill-rule:nonzero;stroke:none"
             transform="matrix(1,0,0,-1,616.39,158.66)">
            <tspan
               id="tspan1031"
               sodipodi:role="line"
               y="0"
               x="0 6.8640022 13.728004">120</tspan>
          </text>
        </g>
      </g>
      <g
         id="g1035">
        <g
           clip-path="url(#clipPath1041)"
           id="g1037">
          <text
             id="text1045"
             style="font-variant:normal;font-weight:normal;font-size:13.53600025px;font-family:Calibri;-inkscape-font-specification:Calibri;writing-mode:lr-tb;fill:#595959;fill-opacity:1;fill-rule:nonzero;stroke:none"
             transform="matrix(1,0,0,-1,704.04,158.66)">
            <tspan
               id="tspan1043"
               sodipodi:role="line"
               y="0"
               x="0 6.8640022 13.728004">140</tspan>
          </text>
        </g>
      </g>
      <g
         id="g1047">
        <g
           clip-path="url(#clipPath1053)"
           id="g1049">
          <text
             id="text1057"
             style="font-variant:normal;font-weight:normal;font-size:21.12000084px;font-family:Calibri;-inkscape-font-specification:Calibri;writing-mode:lr-tb;fill:#595959;fill-opacity:1;fill-rule:nonzero;stroke:none"
             transform="matrix(1,0,0,-1,281.93,500.71)">
            <tspan
               id="tspan1055"
               sodipodi:role="line"
               y="0"
               x="0 12.9888 17.846399 26.01984 33.095039 40.465919 45.323521 56.327042 67.351677 74.42688 79.284477 90.414719 101.50272 105.95904 117.08928 123.63648 128.34624 139.05408 152.04288 156.7104 167.73505 172.59264 180.74496 187.60896 197.72543 208.72896 217.57825">Distribution of 3D distance</tspan>
          </text>
        </g>
      </g>
      <path
         inkscape:connector-curvature="0"
         id="path1059"
         style="fill:none;stroke:#4472c4;stroke-width:2.25650001;stroke-linecap:round;stroke-linejoin:round;stroke-miterlimit:10;stroke-dasharray:none;stroke-opacity:1"
         d="m 298.76,101.58 h 28.88" />
      <g
         id="g1061">
        <g
           clip-path="url(#clipPath1067)"
           id="g1063">
          <text
             id="text1071"
             style="font-variant:normal;font-weight:normal;font-size:13.53600025px;font-family:Calibri;-inkscape-font-specification:Calibri;writing-mode:lr-tb;fill:#595959;fill-opacity:1;fill-rule:nonzero;stroke:none"
             transform="matrix(1,0,0,-1,330.74,97.68)">
            <tspan
               id="tspan1069"
               sodipodi:role="line"
               y="0"
               x="0 7.2146878 14.429376 25.055136 35.870399 43.085087 50.12381 53.19648 57.866402 60.939072 67.61232">Communities</tspan>
          </text>
        </g>
      </g>
      <path
         inkscape:connector-curvature="0"
         id="path1073"
         style="fill:none;stroke:#ed7d31;stroke-width:2.25650001;stroke-linecap:round;stroke-linejoin:round;stroke-miterlimit:10;stroke-dasharray:none;stroke-opacity:1"
         d="M 420.62,101.58 H 449.5" />
      <g
         id="g1075">
        <g
           clip-path="url(#clipPath1081)"
           id="g1077">
          <text
             id="text1085"
             style="font-variant:normal;font-weight:normal;font-size:13.53600025px;font-family:Calibri;-inkscape-font-specification:Calibri;writing-mode:lr-tb;fill:#595959;fill-opacity:1;fill-rule:nonzero;stroke:none"
             transform="matrix(1,0,0,-1,452.62,97.68)">
            <tspan
               id="tspan1083"
               sodipodi:role="line"
               y="0"
               x="0 7.37712 13.860864 20.91312 27.951839 35.166527">Random</tspan>
          </text>
        </g>
      </g>
      <g
         id="g1087">
        <g
           clip-path="url(#clipPath1093)"
           id="g1089">
          <path
             inkscape:connector-curvature="0"
             id="path1095"
             style="fill:none;stroke:#d9d9d9;stroke-width:1.12820005;stroke-linecap:butt;stroke-linejoin:round;stroke-miterlimit:10;stroke-dasharray:none;stroke-opacity:1"
             d="m 50.951,79.861 h 690.12 v 452.2 H 50.951 Z" />
        </g>
      </g>
    </g>
  </g>
</svg>
